<svg width="160" height="160" viewBox="0 0 160 160" fill="none" xmlns="http://www.w3.org/2000/svg">
<path d="M21 90.7273L42.4545 69.2727V133.636L21 112.182V90.7273Z" fill="#ED79FF"/>
<path d="M96.0909 47.8182L117.545 26.3636V69.2727L96.0909 90.7273V47.8182Z" fill="#00C8FF"/>
<path d="M21 47.8182L42.4545 26.3636V69.2727L21 90.7273V47.8182Z" fill="#00C8FF"/>
<path d="M85.3636 90.7273L63.9091 69.2727V133.636L85.3636 112.182V90.7273Z" fill="#FFAA00"/>
<path d="M117.545 69.2727L96.0909 90.7273V112.182L117.545 133.636V69.2727Z" fill="#00FF8C"/>
<path d="M85.3636 47.8182L63.9091 26.3636V69.2727L85.3636 90.7273V47.8182Z" fill="#00FF8C"/>
<path d="M117.545 133.636H139L117.545 112.182V133.636Z" fill="#FFB121"/>
<path d="M42.4546 133.636H63.9091L42.4546 112.182V133.636Z" fill="#00C8FF"/>
<path d="M42.4546 47.8182H63.9091L42.4546 26.3636V47.8182Z" fill="#FFB121"/>
<path d="M63.9091 112.182H42.4545L63.9091 133.636V112.182Z" fill="#00FF8C"/>
<path d="M63.9091 26.3636H42.4545L63.9091 47.8182V26.3636Z" fill="#ED79FF"/>
<path d="M117.545 26.3636H139L117.545 47.8182V26.3636Z" fill="#FFB121"/>
</svg>
