<svg width="160" height="160" viewBox="0 0 160 160" fill="none" xmlns="http://www.w3.org/2000/svg">
<path fill-rule="evenodd" clip-rule="evenodd" d="M90 80C90 93.2548 100.745 104 114 104C127.255 104 138 93.2548 138 80C138 66.7452 127.255 56 114 56C100.745 56 90 66.7452 90 80ZM89 80C89 93.8071 100.193 105 114 105C127.807 105 139 93.8071 139 80C139 66.1929 127.807 55 114 55C100.193 55 89 66.1929 89 80ZM114 99C103.507 99 95 90.4934 95 80C95 69.5066 103.507 61 114 61C124.493 61 133 69.5066 133 80C133 90.4934 124.493 99 114 99ZM114 100C102.954 100 94 91.0457 94 80C94 68.9543 102.954 60 114 60C125.046 60 134 68.9543 134 80C134 91.0457 125.046 100 114 100ZM100 80C100 87.732 106.268 94 114 94C121.732 94 128 87.732 128 80C128 72.268 121.732 66 114 66C106.268 66 100 72.268 100 80ZM99 80C99 88.2843 105.716 95 114 95C122.284 95 129 88.2843 129 80C129 71.7157 122.284 65 114 65C105.716 65 99 71.7157 99 80ZM114 89C109.029 89 105 84.9706 105 80C105 75.0294 109.029 71 114 71C118.971 71 123 75.0294 123 80C123 84.9706 118.971 89 114 89ZM114 90C108.477 90 104 85.5228 104 80C104 74.4772 108.477 70 114 70C119.523 70 124 74.4772 124 80C124 85.5228 119.523 90 114 90ZM109 80C109 82.7614 111.239 85 114 85C116.761 85 119 82.7614 119 80C119 77.2386 116.761 75 114 75C111.239 75 109 77.2386 109 80Z" fill="#100F0F"/>
<path fill-rule="evenodd" clip-rule="evenodd" d="M119.893 85.4104C118.431 87.0023 116.332 88 114 88C109.582 88 106 84.4183 106 80C106 75.5817 109.582 72 114 72C116.319 72 118.408 72.9869 119.869 74.5635L119.9 74.61L119.904 74.6017C119.909 74.6071 119.914 74.6125 119.919 74.6179L121.805 70.8847C121.799 70.8794 121.793 70.8741 121.786 70.8688L122.249 69.9518C122.255 69.9571 122.262 69.9624 122.268 69.9677L124.106 66.3289C121.281 64.2371 117.785 63 114 63C104.611 63 97 70.6112 97 80C97 89.3888 104.611 97 114 97C117.785 97 121.281 95.7629 124.106 93.6711L122.268 90.0323C122.261 90.0386 122.253 90.0449 122.245 90.0512L121.783 89.1342C121.79 89.1279 121.798 89.1216 121.805 89.1153L119.919 85.3821C119.913 85.3887 119.907 85.3953 119.901 85.4018L119.9 85.4L119.893 85.4104ZM119.685 90.5705C117.993 91.4825 116.057 92 114 92C107.373 92 102 86.6274 102 80C102 73.3726 107.373 68 114 68C116.058 68 117.995 68.5182 119.688 69.4312L120.051 68.4912C118.244 67.539 116.185 67 114 67C106.82 67 101 72.8203 101 80C101 87.1797 106.82 93 114 93C116.184 93 118.241 92.4617 120.048 91.5105L119.685 90.5705Z" fill="#100F0F"/>
<path d="M68.1817 63.7771H76.2418L84.7163 76.26V63.7771H94.3423V96.1743H86.2362L77.8077 83.74V96.1743H68.1817V63.7771ZM73.6626 92.2886V69.8486L88.8615 92.2886H90.0589V67.6629H88.8615V90.1029L73.6626 67.6629H72.4651V92.2886H73.6626Z" fill="#100F0F"/>
<path d="M47.8518 63.7771H58.0765V87.6743H66.551V96.1743H47.8518V63.7771ZM63.9718 92.2886V91.1229H53.655V67.6629H52.4575V92.2886H63.9718Z" fill="#100F0F"/>
<path d="M30.5799 84.9057C31.7774 84.9057 32.9442 84.7762 34.0803 84.5171L38.4557 92.2886H39.8835L35.2778 84.1286C36.9358 83.5133 38.2561 82.5743 39.2387 81.3114C40.2212 80.0162 40.7125 78.3486 40.7125 76.3086C40.7125 74.8838 40.4515 73.6371 39.9295 72.5686C39.4076 71.5 38.686 70.6095 37.7649 69.8971C36.8744 69.1524 35.8151 68.6019 34.5869 68.2457C33.3587 67.8571 32.023 67.6629 30.5799 67.6629H25.6057V92.2886H26.8032V84.9057H30.5799ZM26.8032 83.74V68.8286H30.5799C33.3741 68.8286 35.5541 69.4762 37.1201 70.7714C38.7167 72.0667 39.515 73.9124 39.515 76.3086C39.515 78.7048 38.7167 80.5505 37.1201 81.8457C35.5541 83.1086 33.3741 83.74 30.5799 83.74H26.8032ZM21 63.7771H31.5932C33.5583 63.7771 35.3699 64.0524 37.0279 64.6029C38.7167 65.1533 40.1752 65.9629 41.4034 67.0314C42.6316 68.1 43.5834 69.4276 44.2589 71.0143C44.9651 72.5686 45.3183 74.3657 45.3183 76.4057C45.3183 78.0248 45.1033 79.4009 44.6734 80.5343C44.2436 81.6676 43.7677 82.6067 43.2457 83.3514C42.6316 84.1933 41.9407 84.9057 41.1731 85.4886L46.9303 96.1743H35.4159L30.8102 87.9657V96.1743H21V63.7771ZM30.8102 79.7086H31.3168C32.4836 79.7086 33.4662 79.4333 34.2645 78.8829C35.0935 78.3324 35.508 77.4095 35.508 76.1143C35.508 74.819 35.0935 73.8962 34.2645 73.3457C33.4662 72.7952 32.4836 72.52 31.3168 72.52H30.8102V79.7086Z" fill="#100F0F"/>
</svg>
