<svg width="48" height="48" viewBox="0 0 48 48" fill="none" xmlns="http://www.w3.org/2000/svg">
<path fill-rule="evenodd" clip-rule="evenodd" d="M25.0205 15.9186C24.8247 14.6688 23.025 14.6688 22.8292 15.9186C22.6803 16.869 21.4747 17.192 20.8706 16.4434C20.0761 15.4589 18.5175 16.3588 18.9729 17.539C19.3191 18.4366 18.4366 19.3191 17.539 18.9729C16.3588 18.5175 15.4589 20.0761 16.4434 20.8706C17.192 21.4747 16.869 22.6803 15.9186 22.8292C14.6688 23.025 14.6688 24.8247 15.9186 25.0205C16.869 25.1694 17.192 26.375 16.4434 26.9792C15.4589 27.7736 16.3588 29.3322 17.539 28.8768C18.4366 28.5306 19.3191 29.4131 18.9729 30.3107C18.5175 31.4909 20.0761 32.3908 20.8706 31.4063C21.4747 30.6577 22.6803 30.9807 22.8292 31.9311C23.025 33.181 24.8247 33.181 25.0205 31.9311C25.1694 30.9807 26.375 30.6577 26.9792 31.4063C27.7736 32.3908 29.3322 31.4909 28.8768 30.3107C28.5306 29.4131 29.4131 28.5306 30.3107 28.8768C31.4909 29.3322 32.3908 27.7736 31.4063 26.9792C30.6577 26.375 30.9807 25.1694 31.9311 25.0205C33.181 24.8247 33.181 23.025 31.9311 22.8292C30.9807 22.6803 30.6577 21.4747 31.4063 20.8706C32.3908 20.0761 31.4909 18.5175 30.3107 18.9729C29.4131 19.3191 28.5306 18.4366 28.8768 17.539C29.3322 16.3588 27.7736 15.4589 26.9792 16.4434C26.375 17.192 25.1694 16.869 25.0205 15.9186ZM23.9249 29.1749C26.8244 29.1749 29.1749 26.8244 29.1749 23.9249C29.1749 21.0254 26.8244 18.6749 23.9249 18.6749C21.0254 18.6749 18.6749 21.0254 18.6749 23.9249C18.6749 26.8244 21.0254 29.1749 23.9249 29.1749Z" fill="#100F0F"/>
</svg>
