<svg width="48" height="48" viewBox="0 0 48 48" fill="none" xmlns="http://www.w3.org/2000/svg">
<path fill-rule="evenodd" clip-rule="evenodd" d="M13.3068 29H14.4148L15.2922 26.5284H18.8215L19.6989 29H20.8068L17.6023 20.2727H16.5114L13.3068 29ZM18.4887 25.5909L17.0909 21.6534H17.0227L15.625 25.5909H18.4887Z" fill="#100F0F"/>
<path d="M22.2216 28.8423C22.3722 28.9929 22.5526 29.0682 22.7628 29.0682C22.9048 29.0682 23.0327 29.0341 23.1463 28.9659C23.2628 28.8949 23.3551 28.8011 23.4233 28.6846C23.4943 28.5682 23.5298 28.4403 23.5298 28.3011C23.5298 28.0909 23.4546 27.9105 23.304 27.7599C23.1534 27.6094 22.973 27.5341 22.7628 27.5341C22.5526 27.5341 22.3722 27.6094 22.2216 27.7599C22.071 27.9105 21.9957 28.0909 21.9957 28.3011C21.9957 28.5113 22.071 28.6917 22.2216 28.8423Z" fill="#100F0F"/>
<path d="M25.5263 28.8423C25.6769 28.9929 25.8573 29.0682 26.0675 29.0682C26.2095 29.0682 26.3374 29.0341 26.451 28.9659C26.5675 28.8949 26.6598 28.8011 26.728 28.6846C26.799 28.5682 26.8345 28.4403 26.8345 28.3011C26.8345 28.0909 26.7592 27.9105 26.6087 27.7599C26.4581 27.6094 26.2777 27.5341 26.0675 27.5341C25.8573 27.5341 25.6769 27.6094 25.5263 27.7599C25.3757 27.9105 25.3004 28.0909 25.3004 28.3011C25.3004 28.5113 25.3757 28.6917 25.5263 28.8423Z" fill="#100F0F"/>
<path fill-rule="evenodd" clip-rule="evenodd" d="M33.6506 29H34.7074V20.2727H31.7585C31.0767 20.2727 30.5171 20.3892 30.0796 20.6221C29.6421 20.8522 29.3182 21.169 29.108 21.5724C28.8977 21.9758 28.7926 22.4346 28.7926 22.9488C28.7926 23.463 28.8977 23.919 29.108 24.3167C29.3182 24.7145 29.6406 25.027 30.0753 25.2542C30.1837 25.3102 30.2997 25.3592 30.4232 25.4013L28.4517 29H29.679L31.5192 25.5867C31.5918 25.5895 31.6659 25.5909 31.7415 25.5909H33.6506V29ZM33.6506 24.6363V21.2102H31.7926C31.321 21.2102 30.9418 21.2826 30.6548 21.4275C30.3679 21.5696 30.1591 21.7713 30.0284 22.0326C29.8977 22.294 29.8324 22.5994 29.8324 22.9488C29.8324 23.2983 29.8963 23.5994 30.0242 23.8522C30.1548 24.1022 30.3622 24.2954 30.6463 24.4318C30.9332 24.5682 31.3097 24.6363 31.7756 24.6363H33.6506Z" fill="#100F0F"/>
<path d="M27.4641 33.5L24 38L20.5359 33.5H27.4641Z" fill="#100F0F"/>
</svg>
