<svg width="48" height="48" viewBox="0 0 48 48" fill="none" xmlns="http://www.w3.org/2000/svg">
<path d="M14.4148 29H13.3068L16.5114 20.2727H17.6023L20.8068 29H19.6989L17.0909 21.6534H17.0227L14.4148 29ZM14.8239 25.5909H19.2898V26.5284H14.8239V25.5909Z" fill="#100F0F"/>
<path d="M22.7628 29.0682C22.5526 29.0682 22.3722 28.9929 22.2216 28.8423C22.071 28.6917 21.9957 28.5113 21.9957 28.3011C21.9957 28.0909 22.071 27.9105 22.2216 27.7599C22.3722 27.6094 22.5526 27.5341 22.7628 27.5341C22.973 27.5341 23.1534 27.6094 23.304 27.7599C23.4546 27.9105 23.5298 28.0909 23.5298 28.3011C23.5298 28.4403 23.4943 28.5682 23.4233 28.6846C23.3551 28.8011 23.2628 28.8949 23.1463 28.9659C23.0327 29.0341 22.9048 29.0682 22.7628 29.0682Z" fill="#100F0F"/>
<path d="M26.0675 29.0682C25.8573 29.0682 25.6769 28.9929 25.5263 28.8423C25.3757 28.6917 25.3004 28.5113 25.3004 28.3011C25.3004 28.0909 25.3757 27.9105 25.5263 27.7599C25.6769 27.6094 25.8573 27.5341 26.0675 27.5341C26.2777 27.5341 26.4581 27.6094 26.6087 27.7599C26.7592 27.9105 26.8345 28.0909 26.8345 28.3011C26.8345 28.4403 26.799 28.5682 26.728 28.6846C26.6598 28.8011 26.5675 28.8949 26.451 28.9659C26.3374 29.0341 26.2095 29.0682 26.0675 29.0682Z" fill="#100F0F"/>
<path d="M34.7074 29H33.6506V21.2102H31.7926C31.321 21.2102 30.9418 21.2826 30.6548 21.4275C30.3679 21.5696 30.1591 21.7713 30.0284 22.0326C29.8977 22.294 29.8324 22.5994 29.8324 22.9488C29.8324 23.2983 29.8963 23.5994 30.0242 23.8523C30.1548 24.1023 30.3622 24.2954 30.6463 24.4318C30.9332 24.5682 31.3097 24.6363 31.7756 24.6363H34.1278V25.5909H31.7415C31.0653 25.5909 30.5099 25.4787 30.0753 25.2542C29.6406 25.027 29.3182 24.7145 29.108 24.3167C28.8977 23.919 28.7926 23.463 28.7926 22.9488C28.7926 22.4346 28.8977 21.9758 29.108 21.5724C29.3182 21.169 29.6421 20.8523 30.0796 20.6221C30.5171 20.3892 31.0767 20.2727 31.7585 20.2727H34.7074V29ZM30.5994 25.0795H31.7926L29.679 29H28.4517L30.5994 25.0795Z" fill="#100F0F"/>
</svg>
