<svg width="48" height="48" viewBox="0 0 48 48" fill="none" xmlns="http://www.w3.org/2000/svg">
<path d="M27.4641 14.5L24 10L20.5359 14.5H27.4641Z" fill="#100F0F"/>
<path d="M22.2216 28.8423C22.3722 28.9929 22.5526 29.0682 22.7628 29.0682C22.9048 29.0682 23.0327 29.0341 23.1463 28.9659C23.2628 28.8949 23.3551 28.8011 23.4233 28.6847C23.4943 28.5682 23.5298 28.4403 23.5298 28.3011C23.5298 28.0909 23.4545 27.9105 23.304 27.7599C23.1534 27.6094 22.973 27.5341 22.7628 27.5341C22.5526 27.5341 22.3722 27.6094 22.2216 27.7599C22.071 27.9105 21.9957 28.0909 21.9957 28.3011C21.9957 28.5114 22.071 28.6918 22.2216 28.8423Z" fill="#100F0F"/>
<path d="M25.5263 28.8423C25.6768 28.9929 25.8572 29.0682 26.0675 29.0682C26.2095 29.0682 26.3374 29.0341 26.451 28.9659C26.5675 28.8949 26.6598 28.8011 26.728 28.6847C26.799 28.5682 26.8345 28.4403 26.8345 28.3011C26.8345 28.0909 26.7592 27.9105 26.6087 27.7599C26.4581 27.6094 26.2777 27.5341 26.0675 27.5341C25.8572 27.5341 25.6768 27.6094 25.5263 27.7599C25.3757 27.9105 25.3004 28.0909 25.3004 28.3011C25.3004 28.5114 25.3757 28.6918 25.5263 28.8423Z" fill="#100F0F"/>
<path fill-rule="evenodd" clip-rule="evenodd" d="M18.75 29H19.8068V20.2727H16.858C16.1761 20.2727 15.6165 20.3892 15.179 20.6222C14.7415 20.8523 14.4176 21.169 14.2074 21.5724C13.9972 21.9759 13.892 22.4347 13.892 22.9489C13.892 23.4631 13.9972 23.919 14.2074 24.3168C14.4176 24.7145 14.7401 25.027 15.1747 25.2543C15.2832 25.3103 15.3991 25.3593 15.5226 25.4013L13.5511 29H14.7784L16.6186 25.5867C16.6912 25.5895 16.7653 25.5909 16.8409 25.5909H18.75V29ZM18.75 24.6364V21.2102H16.892C16.4204 21.2102 16.0412 21.2827 15.7543 21.4276C15.4673 21.5696 15.2585 21.7713 15.1278 22.0327C14.9972 22.294 14.9318 22.5994 14.9318 22.9489C14.9318 23.2983 14.9957 23.5994 15.1236 23.8523C15.2543 24.1023 15.4616 24.2955 15.7457 24.4318C16.0327 24.5682 16.4091 24.6364 16.875 24.6364H18.75Z" fill="#100F0F"/>
<path fill-rule="evenodd" clip-rule="evenodd" d="M28.4517 29H29.5597L30.437 26.5284H33.9664L34.8437 29H35.9517L32.7472 20.2727H31.6562L28.4517 29ZM33.6336 25.5909L32.2358 21.6534H32.1676L30.7698 25.5909H33.6336Z" fill="#100F0F"/>
</svg>
