<svg width="48" height="48" viewBox="0 0 48 48" fill="none" xmlns="http://www.w3.org/2000/svg">
<path fill-rule="evenodd" clip-rule="evenodd" d="M25.768 18.4641H27C30.3137 18.4641 33 21.1504 33 24.4641C33 27.7778 30.3137 30.4641 27 30.4641H21C17.6863 30.4641 15 27.7778 15 24.4641C15 21.1504 17.6863 18.4641 21 18.4641H21.5V16L25.768 18.4641ZM21.5 20.4641H21C18.7909 20.4641 17 22.255 17 24.4641C17 26.6732 18.7909 28.4641 21 28.4641H27C29.2091 28.4641 31 26.6732 31 24.4641C31 22.255 29.2091 20.4641 27 20.4641H25.768L21.5 22.9282V20.4641Z" fill="#100F0F"/>
</svg>
