<svg width="48" height="48" viewBox="0 0 48 48" fill="none" xmlns="http://www.w3.org/2000/svg">
<path fill-rule="evenodd" clip-rule="evenodd" d="M24.4769 25.8911C22.1337 27.561 18.8596 27.3449 16.7574 25.2426C14.4142 22.8995 14.4142 19.1005 16.7574 16.7574C19.1005 14.4142 22.8995 14.4142 25.2426 16.7574C27.3449 18.8596 27.561 22.1337 25.8911 24.4769L32.3137 30.8995L30.8995 32.3137L24.4769 25.8911ZM24.5355 24.5355C22.5829 26.4882 19.4171 26.4882 17.4645 24.5355C15.5118 22.5829 15.5118 19.4171 17.4645 17.4645C19.4171 15.5118 22.5829 15.5118 24.5355 17.4645C26.4882 19.4171 26.4882 22.5829 24.5355 24.5355Z" fill="#100F0F"/>
</svg>
