<svg width="48" height="48" viewBox="0 0 48 48" fill="none" xmlns="http://www.w3.org/2000/svg">
<path d="M28.9014 25.6982C28.9932 25.6318 29.0654 25.5664 29.1182 25.502L29.1152 23.8203H27.5889V24.4355H28.2949L28.292 25.209C28.2705 25.2344 28.2383 25.2588 28.1953 25.2822C28.1543 25.3037 28.1064 25.3232 28.0518 25.3408C27.9971 25.3584 27.9385 25.3721 27.876 25.3818C27.8135 25.3916 27.75 25.3965 27.6855 25.3965C27.5801 25.3945 27.4854 25.3779 27.4014 25.3467C27.3193 25.3135 27.2471 25.2656 27.1846 25.2031C27.1475 25.166 27.1133 25.124 27.082 25.0771C27.0527 25.0283 27.0264 24.9756 27.0029 24.9189C26.9658 24.8213 26.9365 24.709 26.915 24.582C26.8955 24.4551 26.8857 24.3145 26.8857 24.1602V23.5742C26.8857 23.4512 26.8926 23.3369 26.9062 23.2314C26.9219 23.126 26.9434 23.0303 26.9707 22.9443C27.0059 22.833 27.0498 22.7363 27.1025 22.6543C27.1572 22.5723 27.2178 22.5059 27.2842 22.4551C27.335 22.418 27.3896 22.3896 27.4482 22.3701C27.5068 22.3506 27.5674 22.3408 27.6299 22.3408C27.7451 22.3408 27.8438 22.3564 27.9258 22.3877C28.0098 22.417 28.0791 22.4619 28.1338 22.5225C28.1826 22.5771 28.2207 22.6445 28.248 22.7246C28.2773 22.8047 28.2988 22.8965 28.3125 23H29.1152C29.0938 22.7949 29.0479 22.6104 28.9775 22.4463C28.9092 22.2822 28.8135 22.1426 28.6904 22.0273C28.5674 21.9141 28.416 21.8271 28.2363 21.7666C28.0586 21.7061 27.8496 21.6758 27.6094 21.6758C27.4531 21.6758 27.3047 21.6973 27.1641 21.7402C27.0234 21.7832 26.8936 21.8467 26.7744 21.9307C26.6729 22.0049 26.5791 22.0928 26.4932 22.1943C26.4092 22.2959 26.335 22.4102 26.2705 22.5371C26.2021 22.6797 26.1494 22.8389 26.1123 23.0146C26.0752 23.1885 26.0566 23.377 26.0566 23.5801V24.1602C26.0566 24.373 26.0752 24.5703 26.1123 24.752C26.1514 24.9336 26.208 25.0967 26.2822 25.2412C26.3467 25.3721 26.4248 25.4883 26.5166 25.5898C26.6104 25.6914 26.7139 25.7773 26.8271 25.8477C26.9424 25.916 27.0684 25.9678 27.2051 26.0029C27.3438 26.04 27.4912 26.0586 27.6475 26.0586C27.8271 26.0586 27.9951 26.042 28.1514 26.0088C28.3076 25.9756 28.4492 25.9316 28.5762 25.877C28.7012 25.8242 28.8096 25.7646 28.9014 25.6982Z" fill="#100F0F"/>
<path d="M22.1133 22.4053H20.7979V26H19.9717V22.4053H18.6738V21.7344H22.1133V22.4053Z" fill="#100F0F"/>
<path fill-rule="evenodd" clip-rule="evenodd" d="M23.3994 25.1094H24.6797L24.9287 26H25.7959L24.4248 21.7344H23.6777L22.2803 26H23.1475L23.3994 25.1094ZM24.4863 24.4092H23.6016L24.0498 22.8389L24.4863 24.4092Z" fill="#100F0F"/>
<path fill-rule="evenodd" clip-rule="evenodd" d="M32 19H16V29H32V19ZM31 20H17V28H31V20Z" fill="#100F0F"/>
<path d="M27.4641 33.5L24 38L20.5359 33.5H27.4641Z" fill="#100F0F"/>
</svg>
