<svg width="48" height="48" viewBox="0 0 48 48" fill="none" xmlns="http://www.w3.org/2000/svg">
<path d="M27.4641 14.5L24 10L20.5359 14.5H27.4641Z" fill="#100F0F"/>
<path d="M23.25 24C23.25 24.4142 23.5858 24.75 24 24.75H27C27.4142 24.75 27.75 24.4142 27.75 24C27.75 23.5858 27.4142 23.25 27 23.25H24.75V18.75C24.75 18.3358 24.4142 18 24 18C23.5858 18 23.25 18.3358 23.25 18.75V24Z" fill="#100F0F"/>
<path fill-rule="evenodd" clip-rule="evenodd" d="M31.5 24C31.5 28.1421 28.1421 31.5 24 31.5C19.8579 31.5 16.5 28.1421 16.5 24C16.5 19.8579 19.8579 16.5 24 16.5C28.1421 16.5 31.5 19.8579 31.5 24ZM30.75 24C30.75 27.7279 27.7279 30.75 24 30.75C20.2721 30.75 17.25 27.7279 17.25 24C17.25 20.2721 20.2721 17.25 24 17.25C27.7279 17.25 30.75 20.2721 30.75 24Z" fill="#100F0F"/>
</svg>
