<svg width="48" height="48" viewBox="0 0 48 48" fill="none" xmlns="http://www.w3.org/2000/svg">
<path d="M24 24.75C23.5858 24.75 23.25 24.4142 23.25 24V18.75C23.25 18.3358 23.5858 18 24 18C24.4142 18 24.75 18.3358 24.75 18.75V23.25H27C27.4142 23.25 27.75 23.5858 27.75 24C27.75 24.4142 27.4142 24.75 27 24.75H24Z" fill="#100F0F"/>
<path fill-rule="evenodd" clip-rule="evenodd" d="M24 31.5C28.1421 31.5 31.5 28.1421 31.5 24C31.5 19.8579 28.1421 16.5 24 16.5C19.8579 16.5 16.5 19.8579 16.5 24C16.5 28.1421 19.8579 31.5 24 31.5ZM24 30.75C27.7279 30.75 30.75 27.7279 30.75 24C30.75 20.2721 27.7279 17.25 24 17.25C20.2721 17.25 17.25 20.2721 17.25 24C17.25 27.7279 20.2721 30.75 24 30.75Z" fill="#100F0F"/>
</svg>
