<svg width="270" height="78" viewBox="0 0 270 78" fill="none" xmlns="http://www.w3.org/2000/svg">
<mask id="mask0_916_1264" style="mask-type:luminance" maskUnits="userSpaceOnUse" x="0" y="0" width="270" height="78">
<path d="M270 0H0V78H270V0Z" fill="white"/>
</mask>
<g mask="url(#mask0_916_1264)">
<path d="M35.6659 19.0014L33.0117 16.3927L23.705 25.6994L28.0477 30.0434L35.6659 22.3263L43.3752 30.0135L47.6515 25.7371L38.2708 16.3511L35.6659 19.0014Z" fill="#465FA9"/>
<path d="M20.6542 22.649L23.0459 25.0406L35.6659 12.3362L48.4028 24.986L49.4141 23.9748L47.6034 22.1628L51.7174 18.0489L35.6698 2L18.8904 18.7807L21.7071 21.5974L20.6542 22.649Z" fill="#465FA9"/>
<path d="M47.6502 25.7363L43.3751 30.014L51.0648 37.6609L43.3998 45.3779L47.6177 49.5958L56.8517 40.3619L54.1142 37.6609L56.8023 34.8884L47.6502 25.7363Z" fill="#193964"/>
<path d="M56.4591 22.7911L52.3452 26.9051L50.3292 24.8903L54.4847 20.8167L53.5267 19.8574L48.4015 24.9852L61.0332 37.6546L48.2286 50.2069L50.09 52.067L51.2234 50.9348L54.6446 54.356L71.3342 37.6663L56.4591 22.7911Z" fill="#193964"/>
<path d="M13.9459 41.2311L10.4676 37.6188L23.0459 25.0405L20.6543 22.6488L20.0473 23.2571L17.2331 20.4365L0.00012207 37.6604L16.0477 53.7184L20.4112 49.3549L22.2219 51.1656L23.0511 50.3363L13.9459 41.2311Z" fill="#3C4E8A"/>
<path d="M27.9528 45.4362L20.3099 37.6607L28.0477 30.0437L23.705 25.6997L14.4529 34.9531L16.7925 37.6607L14.2488 40.1472L14.6153 40.5151L23.7453 49.6437L27.9528 45.4362Z" fill="#3C4E8A"/>
<path d="M35.6742 30.4525L28.4666 37.6602L35.6742 44.8678L42.8819 37.6602L35.6742 30.4525Z" fill="#465FA9"/>
<path d="M35.6743 32.412L30.4261 37.6602L35.6743 42.9083L40.9224 37.6601L35.6743 32.412Z" fill="#F59E20"/>
<path d="M35.6553 28.4111L26.4292 37.6372L35.6552 46.8633L44.8813 37.6372L35.6553 28.4111Z" stroke="#4660A9" stroke-width="1.29982" stroke-miterlimit="10"/>
<path d="M35.6659 56.4454L38.2421 58.9709L47.6177 49.5953L43.3998 45.3774L35.6659 53.1308L27.8709 45.354L23.7452 49.6434L33.1325 59.0307L35.6659 56.4454Z" fill="#F59E20"/>
<path d="M49.4739 52.6822L50.09 52.0661L48.2287 50.2061L47.6125 50.8222L35.5749 62.8598L22.9706 50.2541L17.7765 55.4469L35.6646 73.3351L52.895 56.1046L49.4739 52.6822Z" fill="#F59E20"/>
<path d="M93.929 59.3259V52.0405H96.7419C96.8121 52.0405 96.8913 52.0444 96.9797 52.0509C97.0707 52.0548 97.1617 52.0639 97.2527 52.0807C97.8233 52.1678 98.2613 52.4174 98.5681 52.8294C98.8748 53.2415 99.0282 53.7315 99.0282 54.3021C99.0282 54.8728 98.8736 55.3576 98.5629 55.7696C98.2562 56.1817 97.8194 56.43 97.2527 56.5183C97.1617 56.5352 97.0707 56.5469 96.9797 56.5534C96.8926 56.5573 96.8134 56.5586 96.7419 56.5586H94.6725V59.3259H93.929ZM94.6725 55.8502H96.721C96.7821 55.8502 96.8523 55.8463 96.9329 55.8398C97.0135 55.8333 97.0928 55.8216 97.1708 55.8047C97.5451 55.7241 97.8194 55.5383 97.9949 55.2484C98.173 54.9547 98.2626 54.6388 98.2626 54.3021C98.2626 53.9655 98.173 53.6457 97.9949 53.3559C97.8194 53.0621 97.5451 52.8749 97.1708 52.7943C97.0928 52.7775 97.0135 52.7671 96.9329 52.7645C96.8523 52.758 96.7808 52.7541 96.721 52.7541H94.6725V55.8502ZM102.317 59.478C101.773 59.478 101.309 59.3546 100.926 59.1089C100.541 58.8619 100.246 58.5227 100.041 58.0872C99.8354 57.6518 99.7328 57.1527 99.7328 56.5898C99.7328 56.027 99.8367 55.5136 100.046 55.082C100.255 54.6505 100.552 54.3151 100.936 54.0747C101.324 53.8316 101.785 53.7107 102.318 53.7107C102.851 53.7107 103.329 53.8342 103.714 54.0799C104.101 54.3229 104.396 54.6622 104.599 55.0976C104.805 55.5292 104.907 56.027 104.907 56.5898C104.907 57.1527 104.805 57.6674 104.599 58.1028C104.394 58.5344 104.096 58.8723 103.709 59.1141C103.322 59.3571 102.858 59.478 102.318 59.478H102.317ZM102.317 58.7644C102.924 58.7644 103.376 58.5643 103.672 58.1626C103.969 57.7584 104.118 57.2332 104.118 56.5898C104.118 55.9464 103.969 55.407 103.669 55.017C103.368 54.6219 102.919 54.4256 102.318 54.4256C101.718 54.4256 101.256 54.6284 100.962 55.0326C100.669 55.4343 100.522 55.9529 100.522 56.5911C100.522 57.2293 100.674 57.7766 100.977 58.1743C101.281 58.5695 101.727 58.7657 102.317 58.7657V58.7644ZM108.289 59.478C107.74 59.478 107.274 59.3546 106.893 59.1089C106.515 58.8619 106.228 58.524 106.028 58.0924C105.829 57.657 105.726 57.1578 105.72 56.595C105.726 56.0218 105.832 55.5188 106.033 55.0872C106.236 54.6518 106.527 54.3151 106.908 54.076C107.289 53.8329 107.751 53.712 108.293 53.712C108.835 53.712 109.327 53.8472 109.735 54.1163C110.147 54.3866 110.428 54.7558 110.58 55.2237L109.852 55.4564C109.723 55.1288 109.519 54.8767 109.24 54.6973C108.963 54.5153 108.646 54.4243 108.288 54.4243C107.685 54.4243 107.238 54.6271 106.948 55.0313C106.661 55.4356 106.515 55.9568 106.507 56.595C106.514 57.2488 106.666 57.7753 106.962 58.173C107.259 58.5682 107.701 58.7644 108.288 58.7644C109.037 58.7644 109.552 58.4304 109.831 57.7623L110.58 57.9845C110.374 58.4707 110.075 58.8411 109.684 59.0972C109.297 59.3506 108.831 59.4767 108.288 59.4767L108.289 59.478ZM113.745 59.478C113.195 59.478 112.73 59.3546 112.349 59.1089C111.971 58.8619 111.683 58.524 111.483 58.0924C111.284 57.657 111.182 57.1578 111.175 56.595C111.182 56.0218 111.287 55.5188 111.488 55.0872C111.691 54.6518 111.982 54.3151 112.363 54.076C112.744 53.8329 113.207 53.712 113.749 53.712C114.291 53.712 114.782 53.8472 115.19 54.1163C115.602 54.3866 115.883 54.7558 116.035 55.2237L115.307 55.4564C115.178 55.1288 114.974 54.8767 114.695 54.6973C114.418 54.5153 114.101 54.4243 113.743 54.4243C113.14 54.4243 112.693 54.6271 112.403 55.0313C112.116 55.4356 111.971 55.9568 111.963 56.595C111.969 57.2488 112.121 57.7753 112.418 58.173C112.714 58.5682 113.156 58.7644 113.743 58.7644C114.492 58.7644 115.007 58.4304 115.286 57.7623L116.035 57.9845C115.83 58.4707 115.531 58.8411 115.139 59.0972C114.752 59.3506 114.287 59.4767 113.743 59.4767L113.745 59.478ZM121.42 53.8628V59.3272H120.696V55.0729L117.701 59.3272H117.074V53.8628H117.798V58.082L120.798 53.8628H121.42ZM125.108 53.2142C124.869 53.2142 124.649 53.1557 124.45 53.0374C124.254 52.9191 124.098 52.7619 123.98 52.5669C123.861 52.368 123.803 52.1483 123.803 51.9092H124.42C124.42 52.0977 124.488 52.2601 124.623 52.394C124.758 52.5292 124.919 52.5968 125.109 52.5968C125.299 52.5968 125.463 52.5292 125.595 52.394C125.73 52.2588 125.798 52.0977 125.798 51.9092H126.415C126.415 52.1483 126.357 52.368 126.239 52.5669C126.12 52.7632 125.962 52.9191 125.763 53.0374C125.568 53.1557 125.35 53.2142 125.11 53.2142H125.108ZM127.181 53.8628V59.3272H126.457V55.0729L123.462 59.3272H122.834V53.8628H123.558V58.082L126.558 53.8628H127.181ZM130.867 59.478C130.318 59.478 129.852 59.3546 129.471 59.1089C129.093 58.8619 128.806 58.524 128.606 58.0924C128.407 57.657 128.304 57.1578 128.298 56.595C128.304 56.0218 128.409 55.5188 128.611 55.0872C128.814 54.6518 129.105 54.3151 129.486 54.076C129.866 53.8329 130.329 53.712 130.871 53.712C131.413 53.712 131.905 53.8472 132.313 54.1163C132.725 54.3866 133.006 54.7558 133.158 55.2237L132.428 55.4564C132.301 55.1288 132.096 54.8767 131.816 54.6973C131.539 54.5153 131.222 54.4243 130.865 54.4243C130.262 54.4243 129.814 54.6271 129.525 55.0313C129.237 55.4356 129.092 55.9568 129.084 56.595C129.09 57.2488 129.243 57.7753 129.539 58.173C129.835 58.5682 130.277 58.7644 130.865 58.7644C131.613 58.7644 132.128 58.4304 132.408 57.7623L133.156 57.9845C132.951 58.4707 132.652 58.8411 132.261 59.0972C131.873 59.3506 131.408 59.4767 130.865 59.4767L130.867 59.478ZM134.199 59.3259L134.204 53.8615H134.953V56.4923L137.391 53.8615H138.383L135.822 56.5937L138.716 59.3259H137.633L134.951 56.6951V59.3259H134.197H134.199ZM141.014 59.478C140.602 59.478 140.256 59.4039 139.976 59.2558C139.7 59.1076 139.493 58.91 139.354 58.6643C139.216 58.4174 139.147 58.1496 139.147 57.8597C139.147 57.4113 139.277 57.0617 139.536 56.8121C139.796 56.5599 140.13 56.3793 140.538 56.2714C140.785 56.2103 141.054 56.157 141.348 56.1089C141.642 56.0608 141.933 56.0192 142.223 55.9828C142.516 55.9464 142.784 55.9126 143.027 55.8814C143.021 55.3862 142.906 55.0183 142.684 54.7779C142.462 54.5348 142.09 54.4139 141.571 54.4139C141.197 54.4139 140.88 54.4984 140.62 54.6661C140.364 54.8351 140.183 55.1015 140.079 55.4655L139.355 55.2523C139.48 54.7636 139.731 54.384 140.109 54.1137C140.487 53.8433 140.977 53.7094 141.582 53.7094C142.081 53.7094 142.505 53.8043 142.852 53.9928C143.203 54.1787 143.451 54.4477 143.595 54.8026C143.663 54.9612 143.706 55.1379 143.726 55.3329C143.747 55.5292 143.756 55.728 143.756 55.9295V59.3246H143.093V58.4239C142.662 59.1258 141.969 59.4767 141.014 59.4767V59.478ZM141.1 58.8346C141.622 58.8346 142.042 58.6981 142.359 58.4252C142.679 58.1522 142.875 57.8091 142.945 57.3983C142.975 57.2631 142.995 57.1163 143.001 56.959C143.012 56.7965 143.017 56.6535 143.017 56.5287C142.659 56.5729 142.281 56.6197 141.883 56.6704C141.486 56.7211 141.136 56.7861 140.836 56.868C140.603 56.9356 140.387 57.0435 140.188 57.1917C139.989 57.3398 139.889 57.5634 139.889 57.8597C139.889 58.0183 139.928 58.1717 140.006 58.3199C140.087 58.4681 140.216 58.5915 140.391 58.689C140.569 58.7865 140.806 58.8359 141.1 58.8359V58.8346ZM144.769 59.3259L146.205 57.1656C145.848 57.0786 145.548 56.9044 145.304 56.6444C145.065 56.3845 144.946 56.0322 144.946 55.5877C144.946 55.1431 145.07 54.761 145.32 54.4841C145.57 54.2073 145.871 54.0253 146.226 53.9382C146.387 53.9005 146.551 53.8784 146.716 53.8719C146.885 53.8654 147.029 53.8615 147.151 53.8615H149.24L149.246 59.3259H148.497V57.267H147.222C147.137 57.267 147.051 57.2657 146.964 57.2618L145.583 59.3259H144.768H144.769ZM147.183 56.6301H148.498V54.4997H147.183C147.098 54.4997 146.984 54.5036 146.838 54.5101C146.697 54.5166 146.561 54.5387 146.434 54.5751C146.265 54.6258 146.104 54.7337 145.949 54.8988C145.793 55.0612 145.716 55.2874 145.716 55.5773C145.716 55.8502 145.791 56.0699 145.939 56.235C146.091 56.4 146.279 56.5118 146.505 56.569C146.626 56.5989 146.749 56.6184 146.869 56.6249C146.99 56.6288 147.096 56.6301 147.183 56.6301ZM154.618 59.478C154.074 59.478 153.608 59.3519 153.216 59.0985C152.825 58.8424 152.526 58.4707 152.321 57.9858L153.07 57.7636C153.349 58.4317 153.864 58.7657 154.612 58.7657C155.152 58.7657 155.567 58.5993 155.856 58.2653C156.15 57.9286 156.32 57.4776 156.367 56.9148H153.924V56.2779H156.367C156.323 55.7281 156.158 55.2835 155.872 54.943C155.585 54.5985 155.17 54.4269 154.628 54.4269C154.264 54.4269 153.942 54.5166 153.661 54.6947C153.384 54.8728 153.18 55.1275 153.049 55.459L152.32 55.2263C152.472 54.7571 152.751 54.3879 153.159 54.1189C153.571 53.8485 154.061 53.7146 154.631 53.7146C155.164 53.7146 155.62 53.8355 156.002 54.0786C156.383 54.3177 156.675 54.6557 156.878 55.0898C157.081 55.5214 157.181 56.0257 157.181 56.6028C157.181 57.18 157.078 57.6791 156.873 58.1106C156.67 58.5422 156.379 58.8801 155.998 59.1219C155.617 59.361 155.157 59.4806 154.616 59.4806L154.618 59.478ZM157.788 59.3259V58.6734C158.095 58.7306 158.296 58.6851 158.39 58.537C158.487 58.3849 158.561 58.16 158.612 57.8636C158.697 57.371 158.765 56.8004 158.82 56.1492C158.877 55.4954 158.933 54.7324 158.986 53.8628H162.7V59.3272H161.962V54.5764H159.675C159.641 55.0521 159.604 55.5227 159.563 55.988C159.523 56.4534 159.478 56.8836 159.427 57.2774C159.38 57.6726 159.331 58.0027 159.28 58.2692C159.219 58.5695 159.138 58.8086 159.037 58.988C158.94 59.1661 158.793 59.2844 158.596 59.3415C158.401 59.3987 158.131 59.3935 157.787 59.3259H157.788ZM166.425 59.478C165.892 59.478 165.431 59.3598 165.04 59.1245C164.648 58.8879 164.344 58.5565 164.128 58.1275C163.915 57.6999 163.81 57.1968 163.81 56.6197C163.81 56.0426 163.917 55.5071 164.128 55.0716C164.34 54.6362 164.639 54.3008 165.024 54.0643C165.411 53.8277 165.869 53.7107 166.395 53.7107C167.205 53.7107 167.832 53.9863 168.277 54.5361C168.726 55.082 168.936 55.8372 168.909 56.803H164.604C164.634 57.4308 164.804 57.9143 165.115 58.2549C165.426 58.5954 165.852 58.7657 166.395 58.7657C167.191 58.7657 167.763 58.4148 168.11 57.7129L168.803 57.9806C168.587 58.4564 168.268 58.8255 167.846 59.0881C167.427 59.3481 166.954 59.478 166.424 59.478H166.425ZM166.415 54.3931C165.888 54.3931 165.472 54.5478 165.164 54.8585C164.858 55.1652 164.676 55.6059 164.618 56.1791H168.129C168.011 54.9885 167.439 54.3931 166.415 54.3931ZM170.027 59.3259L170.032 53.8615H170.781V56.4923L173.219 53.8615H174.211L171.651 56.5937L174.544 59.3259H173.461L170.78 56.6951V59.3259H170.026H170.027ZM176.761 59.3259V54.5504H174.823V53.8628H179.443V54.5504H177.505V59.3259H176.761ZM180.401 61.754V53.8615H181.069V54.6102C181.268 54.3307 181.519 54.1111 181.823 53.9525C182.13 53.79 182.486 53.7094 182.89 53.7094C183.389 53.7094 183.818 53.8355 184.176 54.089C184.533 54.3411 184.806 54.6856 184.996 55.121C185.188 55.5565 185.284 56.0452 185.284 56.5885C185.284 57.1319 185.188 57.6258 184.996 58.0612C184.807 58.4954 184.53 58.8424 184.167 59.0985C183.805 59.3519 183.371 59.478 182.861 59.478C182.491 59.478 182.162 59.4065 181.875 59.2662C181.588 59.1206 181.347 58.923 181.151 58.6747V61.7553H180.402L180.401 61.754ZM182.785 58.7852C183.166 58.7852 183.483 58.689 183.736 58.4967C183.988 58.3017 184.178 58.0378 184.303 57.7077C184.43 57.3775 184.495 57.0045 184.495 56.5898C184.495 56.1752 184.433 55.8073 184.308 55.4772C184.183 55.147 183.992 54.8858 183.736 54.6934C183.483 54.501 183.16 54.4048 182.769 54.4048C182.2 54.4048 181.772 54.6089 181.489 55.017C181.209 55.4252 181.069 55.949 181.069 56.5898C181.069 57.011 181.131 57.3879 181.256 57.7181C181.381 58.0482 181.569 58.3095 181.823 58.5019C182.076 58.6903 182.396 58.7852 182.785 58.7852ZM188.676 59.478C188.132 59.478 187.668 59.3546 187.285 59.1089C186.9 58.8619 186.605 58.5227 186.4 58.0872C186.194 57.6518 186.091 57.1527 186.091 56.5898C186.091 56.027 186.197 55.5136 186.405 55.082C186.614 54.6505 186.91 54.3151 187.295 54.0747C187.684 53.8316 188.144 53.7107 188.677 53.7107C189.21 53.7107 189.688 53.8342 190.073 54.0799C190.462 54.3229 190.755 54.6622 190.958 55.0976C191.163 55.5292 191.266 56.027 191.266 56.5898C191.266 57.1527 191.163 57.6674 190.958 58.1028C190.753 58.5344 190.455 58.8723 190.068 59.1141C189.68 59.3571 189.216 59.478 188.677 59.478H188.676ZM188.676 58.7644C189.283 58.7644 189.735 58.5643 190.031 58.1626C190.328 57.7584 190.476 57.2332 190.476 56.5898C190.476 55.9464 190.326 55.407 190.026 55.017C189.726 54.6219 189.276 54.4256 188.676 54.4256C188.075 54.4256 187.614 54.6284 187.32 55.0326C187.026 55.4343 186.879 55.9529 186.879 56.5911C186.879 57.2293 187.031 57.7766 187.334 58.1743C187.637 58.5695 188.084 58.7657 188.674 58.7657L188.676 58.7644ZM192.377 59.3259V53.8615H193.121V56.235H196.202V53.8615H196.945V59.3259H196.202V56.9486H193.121V59.3259H192.377ZM202.701 53.8628V59.3272H201.977V55.0729L198.982 59.3272H198.354V53.8628H199.078V58.082L202.078 53.8628H202.701ZM204.116 59.3259L204.121 53.8615H204.87V56.4923L207.309 53.8615H208.3L205.74 56.5937L208.633 59.3259H207.55L204.869 56.6951V59.3259H204.115H204.116ZM210.931 59.478C210.519 59.478 210.173 59.4039 209.894 59.2558C209.617 59.1076 209.41 58.91 209.271 58.6643C209.133 58.4174 209.065 58.1496 209.065 57.8597C209.065 57.4113 209.195 57.0617 209.453 56.8121C209.713 56.5599 210.047 56.3793 210.455 56.2714C210.702 56.2103 210.971 56.157 211.265 56.1089C211.559 56.0608 211.85 56.0192 212.14 55.9828C212.434 55.9464 212.701 55.9126 212.945 55.8814C212.938 55.3862 212.824 55.0183 212.601 54.7779C212.379 54.5348 212.007 54.4139 211.489 54.4139C211.114 54.4139 210.797 54.4984 210.537 54.6661C210.281 54.8351 210.101 55.1015 209.997 55.4655L209.273 55.2523C209.397 54.7636 209.648 54.384 210.026 54.1137C210.405 53.8433 210.895 53.7094 211.499 53.7094C211.998 53.7094 212.422 53.8043 212.769 53.9928C213.12 54.1787 213.368 54.4477 213.513 54.8026C213.58 54.9612 213.623 55.1379 213.644 55.3329C213.665 55.5292 213.674 55.728 213.674 55.9295V59.3246H213.011V58.4239C212.579 59.1258 211.886 59.4767 210.931 59.4767V59.478ZM211.017 58.8346C211.539 58.8346 211.959 58.6981 212.276 58.4252C212.596 58.1522 212.792 57.8091 212.863 57.3983C212.893 57.2631 212.912 57.1163 212.919 56.959C212.929 56.7965 212.934 56.6535 212.934 56.5287C212.577 56.5729 212.198 56.6197 211.801 56.6704C211.403 56.7211 211.053 56.7861 210.753 56.868C210.52 56.9356 210.305 57.0435 210.106 57.1917C209.907 57.3398 209.807 57.5634 209.807 57.8597C209.807 58.0183 209.846 58.1717 209.924 58.3199C210.004 58.4681 210.133 58.5915 210.308 58.689C210.487 58.7865 210.723 58.8359 211.017 58.8359V58.8346ZM215.222 58.2588H215.97L215.262 60.6921H214.751L215.222 58.2588ZM98.2705 67.5525V73.017H97.5464V68.7626L94.5517 73.017H93.9238V67.5525H94.6478V71.7717L97.6478 67.5525H98.2705ZM99.6846 73.017V67.5525H100.428V69.926H103.509V67.5525H104.252V73.017H103.509V70.6396H100.428V73.017H99.6846ZM108.258 75.2929V73.1222C107.725 73.2067 107.239 73.1495 106.801 72.9507C106.363 72.7479 106.013 72.4216 105.753 71.9693C105.494 71.517 105.364 70.958 105.364 70.2899C105.364 69.6218 105.494 69.0616 105.753 68.6106C106.013 68.1582 106.362 67.8307 106.801 67.6292C107.239 67.4238 107.725 67.3627 108.258 67.4472V65.7731H108.946V67.4472C109.479 67.3627 109.965 67.4238 110.403 67.6292C110.841 67.8307 111.191 68.1582 111.451 68.6106C111.711 69.0629 111.841 69.6218 111.841 70.2899C111.841 70.958 111.711 71.5183 111.451 71.9693C111.191 72.4216 110.842 72.7492 110.403 72.9507C109.965 73.1495 109.479 73.2067 108.946 73.1222V75.2929H108.258ZM108.946 72.4294C109.303 72.4905 109.644 72.4567 109.968 72.3281C110.295 72.1968 110.559 71.9641 110.762 71.6301C110.967 71.296 111.07 70.8489 111.07 70.2899C111.07 69.731 110.968 69.2865 110.766 68.9498C110.563 68.6132 110.3 68.3805 109.977 68.2518C109.653 68.1205 109.309 68.0854 108.945 68.1452V72.4307L108.946 72.4294ZM108.258 72.4294V68.1439C107.894 68.0828 107.55 68.1192 107.226 68.2505C106.903 68.3818 106.64 68.6171 106.437 68.9537C106.234 69.2904 106.133 69.7362 106.133 70.2886C106.133 70.8411 106.234 71.2908 106.437 71.6248C106.643 71.9589 106.908 72.1916 107.231 72.3229C107.559 72.4541 107.901 72.4905 108.258 72.4294ZM115.232 73.169C114.688 73.169 114.224 73.0456 113.841 72.7999C113.456 72.5529 113.161 72.2137 112.956 71.7782C112.75 71.3428 112.648 70.8437 112.648 70.2808C112.648 69.718 112.752 69.2046 112.961 68.7731C113.17 68.3415 113.467 68.0062 113.851 67.7657C114.239 67.5226 114.7 67.4017 115.233 67.4017C115.766 67.4017 116.244 67.5252 116.629 67.7709C117.016 68.0139 117.312 68.3532 117.514 68.7886C117.72 69.2202 117.822 69.718 117.822 70.2808C117.822 70.8437 117.72 71.3584 117.514 71.7938C117.309 72.2254 117.011 72.5633 116.624 72.8051C116.237 73.0482 115.773 73.169 115.233 73.169H115.232ZM115.232 72.4554C115.839 72.4554 116.291 72.2553 116.588 71.8536C116.884 71.4494 117.033 70.9242 117.033 70.2808C117.033 69.6374 116.884 69.098 116.584 68.7081C116.283 68.3129 115.834 68.1166 115.233 68.1166C114.633 68.1166 114.171 68.3194 113.877 68.7237C113.584 69.1253 113.437 69.6439 113.437 70.2821C113.437 70.9204 113.589 71.4676 113.892 71.8653C114.196 72.2605 114.642 72.4567 115.232 72.4567V72.4554ZM118.932 73.017L118.938 67.5525H119.686V70.1834L122.125 67.5525H123.117L120.557 70.2847L123.451 73.017H122.368L119.686 70.3861V73.017H118.932ZM126.367 73.169C125.824 73.169 125.36 73.0456 124.977 72.7999C124.592 72.5529 124.297 72.2137 124.091 71.7782C123.886 71.3428 123.783 70.8437 123.783 70.2808C123.783 69.718 123.887 69.2046 124.097 68.7731C124.306 68.3415 124.602 68.0062 124.987 67.7657C125.374 67.5226 125.836 67.4017 126.369 67.4017C126.902 67.4017 127.38 67.5252 127.765 67.7709C128.152 68.0139 128.447 68.3532 128.65 68.7886C128.855 69.2202 128.958 69.718 128.958 70.2808C128.958 70.8437 128.855 71.3584 128.65 71.7938C128.444 72.2254 128.147 72.5633 127.759 72.8051C127.372 73.0482 126.908 73.169 126.369 73.169H126.367ZM126.367 72.4554C126.974 72.4554 127.427 72.2553 127.723 71.8536C128.019 71.4494 128.168 70.9242 128.168 70.2808C128.168 69.6374 128.018 69.098 127.718 68.7081C127.418 68.3129 126.968 68.1166 126.367 68.1166C125.767 68.1166 125.305 68.3194 125.012 68.7237C124.718 69.1253 124.571 69.6439 124.571 70.2821C124.571 70.9204 124.723 71.4676 125.026 71.8653C125.33 72.2605 125.776 72.4567 126.366 72.4567L126.367 72.4554ZM130.068 73.017V67.5525H130.731L132.861 72.0252L134.996 67.5525H135.653V73.017H134.934V69.1422L133.098 73.017H132.627L130.791 69.1422V73.017H130.067H130.068ZM137.065 73.017V67.5525H137.728L139.858 72.0252L141.994 67.5525H142.652V73.017H141.933V69.1422L140.096 73.017H139.626L137.789 69.1422V73.017H137.065ZM144.844 75.445L145.745 73.0066L143.524 67.5525H144.313L146.104 72.0447L147.762 67.5525H148.522L145.588 75.445H144.844ZM149.395 73.017V67.5525H150.138V69.926H153.219V67.5525H153.963V73.017H153.219V70.6396H150.138V73.017H149.395ZM159.719 67.5525V73.017H158.995V68.7626L156.001 73.017H155.373V67.5525H156.097V71.7717L159.097 67.5525H159.719ZM161.134 73.017L161.139 67.5525H161.888V70.1834L164.326 67.5525H165.318L162.758 70.2847L165.652 73.017H164.569L161.888 70.3861V73.017H161.134ZM167.949 73.169C167.537 73.169 167.192 73.095 166.911 72.9468C166.635 72.7986 166.428 72.601 166.289 72.3553C166.151 72.1084 166.081 71.8406 166.081 71.5508C166.081 71.1023 166.211 70.7527 166.471 70.5031C166.731 70.2509 167.065 70.0703 167.473 69.9624C167.719 69.9013 167.989 69.848 168.283 69.7999C168.576 69.7531 168.868 69.7102 169.157 69.6738C169.451 69.6374 169.719 69.6036 169.962 69.5724C169.956 69.0772 169.841 68.7093 169.618 68.4689C169.395 68.2258 169.024 68.1049 168.505 68.1049C168.131 68.1049 167.813 68.1894 167.553 68.3571C167.297 68.5261 167.117 68.7925 167.013 69.1565L166.289 68.9433C166.414 68.4546 166.664 68.075 167.043 67.8047C167.421 67.5343 167.911 67.4004 168.515 67.4004C169.014 67.4004 169.437 67.4953 169.785 67.6838C170.136 67.8697 170.384 68.1387 170.529 68.4936C170.596 68.6522 170.641 68.8289 170.66 69.0239C170.68 69.2202 170.69 69.4191 170.69 69.6205V73.0157H170.027V72.1149C169.595 72.8168 168.903 73.1677 167.947 73.1677L167.949 73.169ZM168.036 72.5256C168.558 72.5256 168.978 72.3891 169.295 72.1162C169.616 71.8432 169.811 71.5001 169.881 71.0893C169.911 70.9541 169.931 70.8073 169.937 70.65C169.948 70.4875 169.953 70.3445 169.953 70.2198C169.596 70.2639 169.217 70.3107 168.819 70.3614C168.422 70.4121 168.072 70.4771 167.772 70.559C167.539 70.6266 167.323 70.7345 167.125 70.8827C166.926 71.0308 166.826 71.2544 166.826 71.5508C166.826 71.7093 166.865 71.8627 166.941 72.0109C167.022 72.1591 167.151 72.2826 167.326 72.3801C167.504 72.4775 167.741 72.5269 168.034 72.5269L168.036 72.5256ZM176.703 73.9632V73.017H172.003V67.5525H172.746V72.3034H175.605V67.5525H176.348V72.3281H177.446V73.9619H176.703V73.9632ZM182.594 67.5525V73.017H181.87V68.7626L178.875 73.017H178.247V67.5525H178.971V71.7717L181.971 67.5525H182.594ZM188.353 67.5525V73.017H187.629V68.7626L184.634 73.017H184.007V67.5525H184.731V71.7717L187.731 67.5525H188.353ZM196.139 67.5525V73.017H195.415V68.7626L192.42 73.017H191.793V67.5525H192.517V71.7717L195.517 67.5525H196.139ZM199.581 75.445V67.5525H200.249V68.3012C200.448 68.0218 200.699 67.8021 201.003 67.6435C201.31 67.481 201.666 67.4004 202.07 67.4004C202.569 67.4004 202.998 67.5265 203.356 67.78C203.713 68.0322 203.986 68.3766 204.176 68.812C204.368 69.2475 204.464 69.7362 204.464 70.2795C204.464 70.8229 204.368 71.3168 204.176 71.7522C203.987 72.1864 203.711 72.5334 203.347 72.7895C202.985 73.043 202.551 73.169 202.042 73.169C201.671 73.169 201.342 73.0975 201.055 72.9572C200.768 72.8116 200.527 72.614 200.331 72.3658V75.4463H199.582L199.581 75.445ZM201.964 72.4749C202.344 72.4749 202.662 72.3788 202.915 72.1864C203.167 71.9914 203.357 71.7275 203.482 71.3974C203.609 71.0672 203.674 70.6942 203.674 70.2795C203.674 69.8649 203.612 69.497 203.487 69.1669C203.362 68.8367 203.171 68.5755 202.915 68.3831C202.662 68.1907 202.339 68.0945 201.948 68.0945C201.379 68.0945 200.951 68.2986 200.668 68.7068C200.388 69.1149 200.248 69.6387 200.248 70.2795C200.248 70.7007 200.31 71.0776 200.435 71.4078C200.56 71.7379 200.748 71.9992 201.002 72.1916C201.255 72.38 201.575 72.4749 201.964 72.4749ZM207.137 73.169C206.725 73.169 206.38 73.095 206.1 72.9468C205.823 72.7986 205.616 72.601 205.477 72.3553C205.339 72.1084 205.269 71.8406 205.269 71.5508C205.269 71.1023 205.399 70.7527 205.659 70.5031C205.919 70.2509 206.253 70.0703 206.661 69.9624C206.908 69.9013 207.177 69.848 207.471 69.7999C207.765 69.7531 208.056 69.7102 208.346 69.6738C208.64 69.6374 208.907 69.6036 209.15 69.5724C209.144 69.0772 209.029 68.7093 208.806 68.4689C208.584 68.2258 208.212 68.1049 207.693 68.1049C207.319 68.1049 207.002 68.1894 206.742 68.3571C206.486 68.5261 206.305 68.7925 206.201 69.1565L205.477 68.9433C205.602 68.4546 205.853 68.075 206.231 67.8047C206.609 67.5343 207.099 67.4004 207.704 67.4004C208.203 67.4004 208.626 67.4953 208.974 67.6838C209.324 67.8697 209.573 68.1387 209.717 68.4936C209.785 68.6522 209.829 68.8289 209.848 69.0239C209.868 69.2202 209.878 69.4191 209.878 69.6205V73.0157H209.215V72.1149C208.784 72.8168 208.091 73.1677 207.136 73.1677L207.137 73.169ZM207.223 72.5256C207.745 72.5256 208.165 72.3891 208.482 72.1162C208.803 71.8432 208.998 71.5001 209.068 71.0893C209.098 70.9541 209.118 70.8073 209.124 70.65C209.135 70.4875 209.14 70.3445 209.14 70.2198C208.783 70.2639 208.404 70.3107 208.006 70.3614C207.609 70.4121 207.259 70.4771 206.959 70.559C206.726 70.6266 206.51 70.7345 206.312 70.8827C206.113 71.0308 206.013 71.2544 206.013 71.5508C206.013 71.7093 206.052 71.8627 206.13 72.0109C206.21 72.1591 206.339 72.2826 206.514 72.3801C206.692 72.4775 206.929 72.5269 207.223 72.5269V72.5256ZM210.791 74.231V72.3801C211.101 72.3801 211.324 72.28 211.459 72.0811C211.594 71.8822 211.703 71.5599 211.788 71.1153C211.845 70.8281 211.892 70.52 211.929 70.1899C211.966 69.8597 211.998 69.4814 212.026 69.0564C212.053 68.6288 212.078 68.127 212.101 67.5538H215.713V72.3801H216.24V74.231H215.521V73.017H211.504V74.231H210.791ZM212.05 72.3788H214.974V68.1894H212.789C212.772 68.5339 212.75 68.9004 212.722 69.293C212.699 69.6803 212.666 70.0547 212.626 70.416C212.586 70.7774 212.536 71.0815 212.479 71.3324C212.428 71.5755 212.373 71.7821 212.313 71.955C212.256 72.1266 212.167 72.2683 212.05 72.3801V72.3788ZM221.592 67.5525V73.017H220.868V68.7626L217.873 73.017H217.246V67.5525H217.97V71.7717L220.97 67.5525H221.592ZM225.294 73.169C224.751 73.169 224.287 73.0456 223.903 72.7999C223.519 72.5529 223.224 72.2137 223.018 71.7782C222.813 71.3428 222.71 70.8437 222.71 70.2808C222.71 69.718 222.814 69.2046 223.023 68.7731C223.233 68.3415 223.529 68.0062 223.914 67.7657C224.301 67.5226 224.761 67.4017 225.294 67.4017C225.827 67.4017 226.307 67.5252 226.69 67.7709C227.077 68.0139 227.373 68.3532 227.575 68.7886C227.781 69.2202 227.883 69.718 227.883 70.2808C227.883 70.8437 227.781 71.3584 227.575 71.7938C227.37 72.2254 227.072 72.5633 226.685 72.8051C226.298 73.0482 225.834 73.169 225.294 73.169ZM225.294 72.4554C225.901 72.4554 226.353 72.2553 226.65 71.8536C226.946 71.4494 227.094 70.9242 227.094 70.2808C227.094 69.6374 226.945 69.098 226.645 68.7081C226.344 68.3129 225.895 68.1166 225.294 68.1166C224.694 68.1166 224.232 68.3194 223.938 68.7237C223.645 69.1253 223.498 69.6439 223.498 70.2821C223.498 70.9204 223.65 71.4676 223.953 71.8653C224.256 72.2605 224.703 72.4567 225.293 72.4567L225.294 72.4554ZM231.267 73.169C230.717 73.169 230.252 73.0456 229.871 72.7999C229.493 72.5529 229.205 72.215 229.005 71.7834C228.806 71.348 228.704 70.8489 228.697 70.286C228.704 69.7128 228.809 69.2098 229.01 68.7782C229.213 68.3428 229.504 68.0062 229.885 67.767C230.266 67.5239 230.729 67.403 231.271 67.403C231.813 67.403 232.304 67.5382 232.712 67.8073C233.124 68.0776 233.405 68.4468 233.557 68.9147L232.828 69.1474C232.7 68.8198 232.496 68.5677 232.216 68.3883C231.939 68.2063 231.622 68.1153 231.264 68.1153C230.66 68.1153 230.214 68.3181 229.923 68.7224C229.637 69.1266 229.49 69.6478 229.483 70.286C229.49 70.9399 229.642 71.4663 229.938 71.864C230.236 72.2592 230.677 72.4554 231.264 72.4554C232.013 72.4554 232.528 72.1214 232.807 71.4533L233.556 71.6755C233.35 72.1617 233.051 72.5321 232.66 72.7882C232.273 73.0417 231.808 73.1677 231.264 73.1677L231.267 73.169ZM234.598 73.017V67.5525H236.849C236.964 67.5525 237.103 67.559 237.264 67.5733C237.429 67.5876 237.583 67.6123 237.724 67.6487C238.031 67.7332 238.278 67.8996 238.463 68.1491C238.651 68.3948 238.746 68.6938 238.746 69.0447C238.746 69.2397 238.716 69.4152 238.655 69.5711C238.598 69.7232 238.515 69.8545 238.407 69.965C238.309 70.0768 238.195 70.1613 238.062 70.2184C238.17 70.2379 238.287 70.286 238.412 70.3601C238.81 70.5993 239.009 70.9892 239.009 71.5287C239.009 71.903 238.919 72.2098 238.741 72.4489C238.563 72.6855 238.322 72.8454 238.022 72.9299C237.887 72.9663 237.74 72.991 237.581 73.0014C237.427 73.0118 237.28 73.017 237.142 73.017H234.597H234.598ZM235.347 69.9663H236.874C236.961 69.9663 237.06 69.9611 237.168 69.9507C237.28 69.9377 237.376 69.9156 237.457 69.8844C237.628 69.8233 237.757 69.7193 237.841 69.5711C237.926 69.423 237.967 69.2605 237.967 69.085C237.967 68.8965 237.922 68.7288 237.831 68.5846C237.74 68.4364 237.606 68.3337 237.432 68.2765C237.311 68.2323 237.18 68.2076 237.038 68.2011C236.9 68.1946 236.812 68.1907 236.775 68.1907H235.348V69.9663H235.347ZM235.347 72.3839H237.107C237.178 72.3839 237.267 72.3787 237.375 72.3683C237.483 72.354 237.579 72.3385 237.663 72.3177C237.862 72.267 238.008 72.1656 238.099 72.0135C238.194 71.8588 238.24 71.6898 238.24 71.5079C238.24 71.2687 238.169 71.0724 238.028 70.9216C237.887 70.767 237.701 70.6721 237.472 70.6383C237.394 70.6214 237.314 70.611 237.229 70.6084C237.145 70.6045 237.069 70.6032 237.002 70.6032H235.347V72.3839ZM239.714 73.017L241.151 70.8567C240.793 70.7696 240.493 70.5954 240.25 70.3354C240.011 70.0755 239.891 69.7232 239.891 69.2787C239.891 68.8341 240.016 68.452 240.265 68.1751C240.515 67.8983 240.817 67.7163 241.171 67.6292C241.334 67.5915 241.498 67.5694 241.663 67.5629C241.832 67.5564 241.976 67.5525 242.097 67.5525H244.187L244.192 73.017H243.444V70.958H242.168C242.084 70.958 241.998 70.9568 241.911 70.9529L240.529 73.017H239.714ZM242.127 70.3198H243.442V68.1894H242.127C242.042 68.1894 241.928 68.1933 241.784 68.1998C241.642 68.2063 241.507 68.2284 241.379 68.2648C241.21 68.3155 241.049 68.4234 240.893 68.5885C240.739 68.7509 240.661 68.9771 240.661 69.267C240.661 69.5399 240.735 69.7596 240.883 69.9247C241.035 70.0898 241.223 70.2015 241.45 70.2587C241.572 70.2886 241.693 70.3081 241.814 70.3146C241.934 70.3185 242.04 70.3198 242.127 70.3198ZM247.578 73.169C247.024 73.169 246.545 73.0495 246.137 72.8103C245.729 72.5672 245.406 72.2319 245.171 71.8029L245.768 71.4234C246.176 72.111 246.765 72.4554 247.533 72.4554C247.934 72.4554 248.257 72.3631 248.498 72.1773C248.742 71.9914 248.862 71.7366 248.862 71.413C248.862 71.0893 248.746 70.8463 248.513 70.715C248.28 70.5798 247.932 70.5122 247.465 70.5122H246.818V69.8753H247.455C247.833 69.8753 248.136 69.8077 248.366 69.6725C248.599 69.5373 248.714 69.3216 248.714 69.0252C248.714 68.7288 248.599 68.4858 248.366 68.3376C248.137 68.1855 247.862 68.1101 247.541 68.1101C247.219 68.1101 246.91 68.1777 246.62 68.3129C246.333 68.4442 246.093 68.6145 245.896 68.8237L245.421 68.3233C245.694 68.023 246.012 67.7956 246.377 67.6409C246.745 67.4823 247.151 67.403 247.596 67.403C247.947 67.403 248.265 67.4654 248.548 67.5902C248.831 67.715 249.057 67.8957 249.226 68.1309C249.395 68.3636 249.48 68.6457 249.48 68.9758C249.48 69.2319 249.429 69.4593 249.328 69.6582C249.226 69.8545 249.081 70.0222 248.892 70.1639C249.142 70.286 249.325 70.4706 249.443 70.7202C249.562 70.9671 249.62 71.2206 249.62 71.4845C249.62 71.8315 249.529 72.1318 249.347 72.3852C249.169 72.6348 248.924 72.8285 248.614 72.9663C248.307 73.1015 247.962 73.169 247.577 73.169H247.578ZM250.743 73.017L250.733 67.5525H251.482V69.6114H252.762C252.921 69.6114 253.075 69.6153 253.227 69.6218C253.379 69.6283 253.516 69.6426 253.637 69.6621C254.041 69.7388 254.375 69.9065 254.639 70.1626C254.901 70.416 255.034 70.7982 255.034 71.3116C255.034 71.7808 254.912 72.15 254.67 72.419C254.431 72.6894 254.127 72.8636 253.759 72.9455C253.621 72.9754 253.469 72.9962 253.304 73.0066C253.141 73.0131 252.983 73.017 252.828 73.017H250.743ZM251.483 72.3788H252.798C252.91 72.3788 253.036 72.3748 253.178 72.3683C253.32 72.3618 253.446 72.3424 253.557 72.3125C253.735 72.2618 253.898 72.1604 254.044 72.0096C254.192 71.8575 254.266 71.6248 254.266 71.3116C254.266 70.9983 254.196 70.7735 254.054 70.6188C253.912 70.4602 253.724 70.3562 253.487 70.3055C253.379 70.2821 253.265 70.2665 253.143 70.26C253.024 70.2535 252.91 70.2496 252.798 70.2496H251.483V72.3801V72.3788Z" fill="#252F3F"/>
<path d="M93.9342 15.7037V2.00098H104.831V15.7037H102.842V3.87532H95.9243V15.7037H93.9355H93.9342ZM112.06 15.9883C111.039 15.9883 110.142 15.7661 109.367 15.3228C108.599 14.8718 108 14.2479 107.568 13.4485C107.143 12.6426 106.931 11.7106 106.931 10.6513C106.931 9.52824 107.14 8.55468 107.559 7.72929C107.984 6.90521 108.574 6.267 109.329 5.81596C110.084 5.36492 110.963 5.14005 111.965 5.14005C112.968 5.14005 113.903 5.38441 114.639 5.87315C115.375 6.35538 115.923 7.04299 116.286 7.93856C116.647 8.83284 116.793 9.8961 116.724 11.127H109.064C109.146 12.0785 109.432 12.8142 109.921 13.3341C110.416 13.854 111.097 14.114 111.967 14.114C113.229 14.114 114.12 13.5681 114.64 12.4775L116.591 13.0962C116.192 14.0165 115.585 14.7301 114.774 15.2371C113.962 15.7388 113.058 15.9883 112.063 15.9883H112.06ZM112.041 6.90131C110.347 6.90131 109.37 7.79298 109.11 9.57503H114.686C114.483 7.79298 113.601 6.90131 112.041 6.90131ZM118.848 20.2713V5.42602H120.618V6.34889C120.986 5.96804 121.424 5.67297 121.931 5.4637C122.438 5.24793 123.01 5.14005 123.644 5.14005C124.609 5.14005 125.439 5.37791 126.137 5.85365C126.842 6.32288 127.384 6.96759 127.765 7.78518C128.146 8.59757 128.335 9.52044 128.335 10.5538C128.335 11.5872 128.146 12.5074 127.765 13.3328C127.39 14.1517 126.855 14.7977 126.157 15.2734C125.465 15.7492 124.641 15.9871 123.683 15.9871C123.1 15.9871 122.569 15.8987 122.094 15.7206C121.624 15.549 121.208 15.3021 120.847 14.9784V20.2687H118.849L118.848 20.2713ZM123.406 14.1907C124.041 14.1907 124.567 14.0295 124.986 13.7059C125.404 13.3822 125.715 12.9481 125.918 12.4021C126.12 11.8497 126.222 11.2349 126.222 10.5564C126.222 9.8779 126.116 9.27477 125.907 8.72885C125.704 8.18292 125.39 7.74878 124.965 7.42513C124.54 7.10147 123.998 6.94029 123.337 6.94029C122.399 6.94029 121.71 7.27695 121.272 7.94896C120.834 8.62096 120.616 9.49055 120.616 10.5564C120.616 11.6223 120.834 12.4944 121.272 13.1729C121.717 13.8514 122.426 14.1907 123.404 14.1907H123.406ZM134.994 15.9883C133.973 15.9883 133.076 15.7661 132.301 15.3228C131.533 14.8718 130.934 14.2479 130.502 13.4485C130.077 12.6426 129.864 11.7106 129.864 10.6513C129.864 9.52824 130.073 8.55468 130.492 7.72929C130.917 6.90521 131.507 6.267 132.262 5.81596C133.017 5.36492 133.896 5.14005 134.898 5.14005C135.9 5.14005 136.836 5.38441 137.572 5.87315C138.308 6.35538 138.856 7.04299 139.217 7.93856C139.579 8.83284 139.726 9.8961 139.655 11.127H131.996C132.077 12.0785 132.363 12.8142 132.852 13.3341C133.347 13.854 134.03 14.114 134.898 14.114C136.16 14.114 137.052 13.5681 137.572 12.4775L139.523 13.0962C139.122 14.0165 138.517 14.7301 137.706 15.2371C136.893 15.7388 135.99 15.9883 134.993 15.9883H134.994ZM134.976 6.90131C133.282 6.90131 132.305 7.79298 132.045 9.57503H137.621C137.418 7.79298 136.536 6.90131 134.976 6.90131ZM141.031 17.9875V14.1049C141.595 14.1049 141.998 13.9177 142.239 13.5434C142.486 13.1625 142.684 12.5191 142.83 11.6119C142.963 10.7813 143.065 9.8701 143.134 8.88093C143.21 7.89177 143.279 6.74013 143.343 5.42602H150.709V14.1049H151.718V17.9875H149.834V15.7037H142.926V17.9875H141.032H141.031ZM143.876 14.1049H148.71V7.02479H145.113C145.082 7.57721 145.043 8.15434 144.999 8.75616C144.961 9.35927 144.913 9.93898 144.856 10.4979C144.805 11.0555 144.742 11.5508 144.666 11.9823C144.59 12.4892 144.499 12.9117 144.391 13.2483C144.283 13.5785 144.111 13.8631 143.877 14.1049H143.876ZM157.705 15.9883C156.677 15.9883 155.786 15.757 155.031 15.2942C154.276 14.8315 153.692 14.1933 153.28 13.3809C152.875 12.562 152.671 11.621 152.671 10.5551C152.671 9.48925 152.88 8.54038 153.298 7.72929C153.717 6.91691 154.303 6.28259 155.058 5.82636C155.813 5.37012 156.695 5.14135 157.703 5.14135C158.712 5.14135 159.622 5.37271 160.377 5.83545C161.132 6.29168 161.716 6.92991 162.128 7.7488C162.54 8.56118 162.747 9.49705 162.747 10.5564C162.747 11.6158 162.537 12.5737 162.119 13.3926C161.707 14.2115 161.123 14.8484 160.368 15.3059C159.613 15.7622 158.725 15.9909 157.703 15.9909L157.705 15.9883ZM157.705 14.114C158.687 14.114 159.42 13.7839 159.903 13.1249C160.391 12.4645 160.636 11.6093 160.636 10.5551C160.636 9.50095 160.389 8.62617 159.894 7.98536C159.405 7.33804 158.676 7.01439 157.705 7.01439C156.734 7.01439 155.963 7.34455 155.487 8.00355C155.018 8.65736 154.783 9.50745 154.783 10.5538C154.783 11.6002 155.027 12.5048 155.516 13.1521C156.011 13.793 156.74 14.1127 157.705 14.1127V14.114ZM164.829 15.7037V5.42602H169.35C169.647 5.42602 169.946 5.44551 170.244 5.4832C170.543 5.5144 170.806 5.56249 171.034 5.62618C171.554 5.77176 171.999 6.06422 172.367 6.50226C172.735 6.9403 172.919 7.51742 172.919 8.23363C172.919 8.64567 172.855 8.99531 172.729 9.27997C172.602 9.56593 172.428 9.80641 172.206 10.0027C171.996 10.1925 171.774 10.3263 171.539 10.4017C171.774 10.4459 172.005 10.5291 172.234 10.6487C172.582 10.8333 172.868 11.0997 173.091 11.4481C173.32 11.7912 173.434 12.2501 173.434 12.8285C173.434 13.52 173.266 14.101 172.93 14.5703C172.593 15.033 172.117 15.3501 171.502 15.5217C171.261 15.5919 170.989 15.6387 170.683 15.6647C170.386 15.6907 170.087 15.7024 169.789 15.7024H164.832L164.829 15.7037ZM166.846 9.77521H169.073C169.251 9.77521 169.434 9.76612 169.625 9.74662C169.822 9.72062 169.991 9.68032 170.13 9.62313C170.377 9.52824 170.561 9.36966 170.682 9.14739C170.803 8.91862 170.863 8.67166 170.863 8.40519C170.863 8.11274 170.797 7.85277 170.663 7.6253C170.53 7.39653 170.33 7.23795 170.063 7.14956C169.874 7.08587 169.66 7.05079 169.425 7.04429C169.19 7.03129 169.042 7.02479 168.978 7.02479H166.846V9.77521ZM166.846 14.1335H169.663C169.797 14.1335 169.949 14.1205 170.119 14.0958C170.29 14.0711 170.443 14.036 170.577 13.9905C170.856 13.9021 171.059 13.7397 171.186 13.5057C171.314 13.2704 171.376 13.0209 171.376 12.7544C171.376 12.3995 171.281 12.111 171.09 11.8887C170.899 11.6665 170.659 11.5235 170.366 11.4611C170.234 11.4169 170.091 11.3909 169.939 11.3844C169.793 11.3779 169.666 11.3753 169.558 11.3753H166.846V14.1348V14.1335ZM178.242 15.9883C177.48 15.9883 176.843 15.8493 176.329 15.5698C175.815 15.2838 175.424 14.9095 175.159 14.4468C174.899 13.9775 174.769 13.4628 174.769 12.9052C174.769 12.1318 174.975 11.4936 175.388 10.9918C175.8 10.4901 176.403 10.1132 177.196 9.8597C177.792 9.68163 178.49 9.53344 179.29 9.41256C180.095 9.29167 180.913 9.17469 181.745 9.06031C181.714 8.34931 181.516 7.82677 181.155 7.49012C180.8 7.14696 180.223 6.97669 179.423 6.97669C178.884 6.97669 178.39 7.10408 177.939 7.35755C177.488 7.61101 177.175 8.02304 176.997 8.59496L175.14 8.02436C175.387 7.14308 175.87 6.44117 176.587 5.92124C177.305 5.40131 178.256 5.14135 179.443 5.14135C180.363 5.14135 181.163 5.29993 181.841 5.61709C182.526 5.92774 183.028 6.42296 183.345 7.10147C183.504 7.44462 183.602 7.80208 183.64 8.17643C183.684 8.55077 183.706 8.94981 183.706 9.37486V15.7024H181.946V14.2089C181.116 15.3956 179.881 15.9883 178.245 15.9883H178.242ZM178.594 14.361C179.158 14.361 179.644 14.2622 180.05 14.0659C180.462 13.8631 180.788 13.6058 181.03 13.2951C181.277 12.9845 181.439 12.6608 181.516 12.3242C181.598 12.0889 181.653 11.8224 181.677 11.5248C181.703 11.2271 181.719 10.9567 181.725 10.7163C180.951 10.8307 180.27 10.9347 179.68 11.0308C179.096 11.1192 178.589 11.231 178.157 11.3636C177.752 11.5027 177.411 11.6899 177.14 11.9251C176.873 12.1604 176.739 12.4801 176.739 12.8857C176.739 13.2912 176.889 13.6305 177.186 13.9229C177.491 14.2154 177.961 14.361 178.594 14.361ZM185.604 15.7037L188.05 11.8692C187.423 11.6664 186.905 11.3116 186.5 10.8034C186.101 10.2899 185.9 9.62314 185.9 8.80555C185.9 7.90477 186.141 7.18207 186.623 6.63614C187.112 6.08372 187.731 5.72887 188.479 5.57029C188.803 5.5001 189.133 5.4598 189.47 5.4468C189.813 5.4338 190.1 5.4273 190.335 5.4273H194.418L194.427 15.705H192.428V12.137H190.391C190.264 12.137 190.134 12.1344 190.001 12.1279L187.727 15.7063H185.604V15.7037ZM190.22 10.5356H192.427V7.02479H190.22C190.081 7.02479 189.909 7.03129 189.706 7.04429C189.504 7.05728 189.306 7.09237 189.116 7.14956C188.824 7.23145 188.555 7.41603 188.308 7.70199C188.061 7.98145 187.936 8.34281 187.936 8.78735C187.936 9.23189 188.059 9.58674 188.308 9.8727C188.555 10.1522 188.85 10.3354 189.193 10.4251C189.377 10.4758 189.558 10.507 189.735 10.52C189.919 10.533 190.081 10.5395 190.22 10.5395V10.5356ZM102.594 28.2392V38.5168H100.68V31.3704L95.5421 38.5168H93.9238V28.2392H95.8372V35.2426L100.986 28.2392H102.594ZM105.243 38.5168V28.2392H107.231V32.4363H112.246V28.2392H114.235V38.5168H112.246V34.3106H107.231V38.5168H105.243ZM115.763 38.5168L119.723 33.3786L115.983 28.2405H118.172L121.75 33.2552V28.2405H123.539V33.2552L127.117 28.2405H129.315L125.576 33.3786L129.535 38.5168H127.223L123.54 33.5021V38.5168H121.752V33.5021L118.078 38.5168H115.766H115.763ZM135.236 38.8015C134.214 38.8015 133.318 38.5792 132.543 38.1347C131.775 37.6836 131.175 37.0597 130.744 36.2604C130.319 35.4545 130.106 34.5225 130.106 33.4631C130.106 32.3401 130.315 31.3665 130.733 30.5411C131.159 29.7171 131.749 29.0789 132.504 28.6278C133.259 28.1768 134.138 27.9519 135.14 27.9519C136.142 27.9519 137.078 28.1963 137.814 28.685C138.549 29.1672 139.098 29.8548 139.459 30.7504C139.821 31.6447 139.967 32.7079 139.897 33.9389H132.237C132.319 34.8903 132.605 35.626 133.094 36.146C133.589 36.6659 134.27 36.9272 135.14 36.9272C136.402 36.9272 137.294 36.3812 137.814 35.2907L139.765 35.9094C139.364 36.8297 138.759 37.5433 137.947 38.0502C137.135 38.5519 136.232 38.8015 135.235 38.8015H135.236ZM135.217 29.7145C133.523 29.7145 132.545 30.6061 132.285 32.3882H137.862C137.659 30.6061 136.776 29.7145 135.217 29.7145ZM142.025 38.5168V28.2392H144.014V32.4363H149.028V28.2392H151.017V38.5168H149.028V34.3106H144.014V38.5168H142.025ZM158.245 38.8015C157.224 38.8015 156.327 38.5792 155.552 38.1347C154.785 37.6836 154.185 37.0597 153.753 36.2604C153.328 35.4545 153.115 34.5225 153.115 33.4631C153.115 32.3401 153.324 31.3665 153.743 30.5411C154.168 29.7171 154.758 29.0789 155.513 28.6278C156.268 28.1768 157.147 27.9519 158.149 27.9519C159.151 27.9519 160.087 28.1963 160.823 28.685C161.559 29.1672 162.108 29.8548 162.47 30.7504C162.831 31.6447 162.977 32.7079 162.908 33.9389H155.248C155.33 34.8903 155.616 35.626 156.105 36.146C156.599 36.6659 157.281 36.9272 158.151 36.9272C159.413 36.9272 160.304 36.3812 160.824 35.2907L162.775 35.9094C162.376 36.8297 161.771 37.5433 160.958 38.0502C160.146 38.5519 159.242 38.8015 158.245 38.8015ZM158.226 29.7145C156.532 29.7145 155.555 30.6061 155.295 32.3882H160.871C160.668 30.6061 159.787 29.7145 158.226 29.7145ZM165.034 43.0844V28.2392H166.805V29.162C167.173 28.7812 167.611 28.4861 168.119 28.2769C168.626 28.0611 169.198 27.9532 169.832 27.9532C170.797 27.9532 171.627 28.1911 172.325 28.6668C173.03 29.136 173.572 29.7807 173.953 30.5983C174.333 31.4107 174.523 32.3336 174.523 33.367C174.523 34.4003 174.333 35.3206 173.953 36.146C173.578 36.9649 173.041 37.6109 172.345 38.0879C171.653 38.5636 170.828 38.8015 169.87 38.8015C169.286 38.8015 168.757 38.7131 168.28 38.535C167.811 38.3635 167.395 38.1165 167.034 37.7928V43.0831H165.036L165.034 43.0844ZM169.592 37.0038C170.226 37.0038 170.752 36.8427 171.171 36.519C171.589 36.1954 171.9 35.7612 172.103 35.2153C172.306 34.6629 172.407 34.0481 172.407 33.3696C172.407 32.691 172.302 32.0879 172.092 31.542C171.89 30.9961 171.575 30.5619 171.15 30.2383C170.725 29.9146 170.183 29.7534 169.523 29.7534C168.584 29.7534 167.895 30.0901 167.457 30.7621C167.019 31.4341 166.801 32.3037 166.801 33.3696C166.801 34.4354 167.019 35.3076 167.457 35.9861C167.902 36.6646 168.611 37.0038 169.589 37.0038H169.592ZM176.613 38.5168V28.2392H178.602V32.4363H183.617V28.2392H185.605V38.5168H183.617V34.3106H178.602V38.5168H176.613ZM191.178 38.8015C190.416 38.8015 189.779 38.6624 189.266 38.383C188.752 38.097 188.361 37.7239 188.095 37.2599C187.835 36.7907 187.705 36.2772 187.705 35.7183C187.705 34.9449 187.911 34.3067 188.323 33.805C188.735 33.3033 189.338 32.9263 190.131 32.6729C190.728 32.4948 191.426 32.3466 192.225 32.2257C193.031 32.1048 193.849 31.9878 194.681 31.8735C194.65 31.1625 194.452 30.6399 194.091 30.3033C193.736 29.9601 193.157 29.7898 192.359 29.7898C191.82 29.7898 191.326 29.9172 190.875 30.1707C190.424 30.4242 190.111 30.8362 189.932 31.4081L188.076 30.8375C188.323 29.9562 188.806 29.2543 189.523 28.7344C190.241 28.2145 191.192 27.9545 192.377 27.9545C193.298 27.9545 194.097 28.1131 194.776 28.4302C195.461 28.7409 195.962 29.2361 196.28 29.9146C196.438 30.2578 196.537 30.6152 196.575 30.9896C196.619 31.3639 196.641 31.763 196.641 32.188V38.5155H194.881V37.022C194.049 38.2088 192.815 38.8015 191.179 38.8015H191.178ZM191.53 37.1741C192.094 37.1741 192.58 37.0753 192.986 36.8791C193.398 36.6763 193.724 36.4189 193.966 36.1083C194.213 35.7976 194.375 35.474 194.451 35.1373C194.533 34.902 194.587 34.6356 194.612 34.3379C194.638 34.0403 194.653 33.7699 194.66 33.5294C193.885 33.6438 193.204 33.7478 192.614 33.844C192.03 33.9324 191.523 34.0442 191.092 34.1767C190.686 34.3158 190.346 34.503 190.073 34.7383C189.806 34.9735 189.674 35.2933 189.674 35.6988C189.674 36.1044 189.823 36.4449 190.121 36.7361C190.425 37.0285 190.896 37.1741 191.53 37.1741ZM198.54 38.5168L200.986 34.6824C200.358 34.4796 199.841 34.1247 199.435 33.6165C199.035 33.1031 198.836 32.4363 198.836 31.6187C198.836 30.7179 199.078 29.9952 199.56 29.4493C200.049 28.8969 200.668 28.542 201.416 28.3834C201.74 28.3133 202.07 28.273 202.406 28.26C202.749 28.247 203.037 28.2405 203.271 28.2405H207.353L207.362 38.5181H205.364V34.9501H203.327C203.2 34.9501 203.07 34.9475 202.937 34.941L200.662 38.5194H198.54V38.5168ZM203.156 33.3488H205.364V29.8379H203.156C203.016 29.8379 202.845 29.8444 202.642 29.8574C202.439 29.8704 202.243 29.9055 202.052 29.9627C201.76 30.0446 201.49 30.2292 201.244 30.5151C200.997 30.7946 200.872 31.156 200.872 31.6005C200.872 32.045 200.995 32.3999 201.244 32.6858C201.49 32.9653 201.786 33.1486 202.129 33.2383C202.313 33.289 202.494 33.3202 202.671 33.3332C202.855 33.3462 203.016 33.3527 203.156 33.3527V33.3488ZM213.822 38.5168V28.2392H215.735V36.727H218.961V28.2392H220.873V36.727H224.09V28.2392H226.003V38.5168H213.822ZM228.653 38.5168L228.662 28.2392H230.679V33.1876L234.714 28.2392H237.246L232.983 33.3773L237.684 38.5155H234.982L230.681 33.5671V38.5155H228.654L228.653 38.5168ZM243.161 38.8015C242.135 38.8015 241.243 38.5701 240.488 38.1061C239.733 37.6434 239.149 37.0052 238.737 36.1941C238.331 35.3752 238.127 34.4328 238.127 33.3683C238.127 32.3037 238.336 31.3535 238.755 30.5424C239.174 29.7301 239.76 29.0957 240.515 28.6395C241.27 28.1833 242.151 27.9545 243.16 27.9545C244.169 27.9545 245.08 28.1859 245.834 28.6486C246.589 29.1048 247.173 29.743 247.585 30.5619C247.997 31.3743 248.203 32.3102 248.203 33.3696C248.203 34.4289 247.994 35.3869 247.576 36.2058C247.164 37.0246 246.58 37.6616 245.825 38.1191C245.07 38.5753 244.182 38.8041 243.16 38.8041L243.161 38.8015ZM243.161 36.9272C244.145 36.9272 244.878 36.597 245.359 35.9367C245.848 35.2764 246.093 34.4211 246.093 33.367C246.093 32.3128 245.846 31.438 245.35 30.7972C244.862 30.1499 244.132 29.8262 243.161 29.8262C242.19 29.8262 241.42 30.1564 240.944 30.8154C240.475 31.4692 240.239 32.3193 240.239 33.3657C240.239 34.412 240.484 35.3167 240.973 35.964C241.468 36.6048 242.197 36.9259 243.161 36.9259V36.9272ZM249.345 38.5168V36.8323C249.915 36.9337 250.294 36.8583 250.477 36.6035C250.667 36.3435 250.814 35.9185 250.915 35.3284C251.073 34.4588 251.203 33.415 251.305 32.1971C251.406 30.9792 251.498 29.6599 251.58 28.2379H258.965V38.5155H256.967V30.1135H253.37C253.32 30.7855 253.26 31.503 253.19 32.2647C253.119 33.0264 253.044 33.753 252.961 34.4445C252.884 35.136 252.798 35.7105 252.703 36.1668C252.576 36.8518 252.389 37.3938 252.142 37.7941C251.901 38.1945 251.558 38.4531 251.114 38.574C250.669 38.6949 250.08 38.6754 249.343 38.5168H249.345ZM264.537 38.8015C263.775 38.8015 263.138 38.6624 262.624 38.383C262.11 38.097 261.72 37.7239 261.454 37.2599C261.194 36.7907 261.064 36.2772 261.064 35.7183C261.064 34.9449 261.271 34.3067 261.683 33.805C262.095 33.3033 262.698 32.9263 263.491 32.6729C264.087 32.4948 264.785 32.3466 265.585 32.2257C266.391 32.1048 267.208 31.9878 268.04 31.8735C268.009 31.1625 267.811 30.6399 267.45 30.3033C267.095 29.9601 266.517 29.7898 265.719 29.7898C265.179 29.7898 264.684 29.9172 264.234 30.1707C263.783 30.4242 263.47 30.8362 263.292 31.4081L261.436 30.8375C261.683 29.9562 262.165 29.2543 262.882 28.7344C263.6 28.2145 264.551 27.9545 265.737 27.9545C266.657 27.9545 267.456 28.1131 268.135 28.4302C268.82 28.7409 269.322 29.2361 269.639 29.9146C269.797 30.2578 269.896 30.6152 269.934 30.9896C269.978 31.3639 270 31.763 270 32.188V38.5155H268.24V37.022C267.41 38.2088 266.175 38.8015 264.538 38.8015H264.537ZM264.888 37.1741C265.453 37.1741 265.938 37.0753 266.344 36.8791C266.756 36.6763 267.082 36.4189 267.324 36.1083C267.571 35.7976 267.733 35.474 267.809 35.1373C267.891 34.902 267.945 34.6356 267.97 34.3379C267.996 34.0403 268.011 33.7699 268.018 33.5294C267.244 33.6438 266.562 33.7478 265.972 33.844C265.388 33.9324 264.881 34.0442 264.45 34.1767C264.044 34.3158 263.705 34.503 263.432 34.7383C263.166 34.9735 263.032 35.2933 263.032 35.6988C263.032 36.1044 263.181 36.4449 263.479 36.7361C263.783 37.0285 264.254 37.1741 264.887 37.1741H264.888Z" fill="#1B2434"/>
</g>
</svg>
