<svg width="270" height="78" viewBox="0 0 270 78" fill="none" xmlns="http://www.w3.org/2000/svg">
<g clip-path="url(#clip0_0_1)">
<mask id="mask0_0_1" style="mask-type:luminance" maskUnits="userSpaceOnUse" x="0" y="0" width="270" height="78">
<path d="M270 0H0V78H270V0Z" fill="white"/>
</mask>
<g mask="url(#mask0_0_1)">
<path d="M118.153 17.3083H114.582V0H128.975V17.3083H125.517V3.14697H118.153V17.3083Z" fill="#363636"/>
<path d="M138.57 17.6454C136.674 17.6454 135 17.0834 133.773 15.8471C132.434 14.6108 131.764 13.0373 131.764 11.1267C131.764 9.32838 132.322 7.75487 133.549 6.51857C134.777 5.28227 136.227 4.60791 138.124 4.60791C139.909 4.60791 141.359 5.28227 142.364 6.51857C143.479 7.75487 143.925 9.32838 143.925 11.1267V12.0258H135.112C135.335 12.8125 135.781 13.4869 136.451 13.9365C137.232 14.386 138.124 14.6108 139.24 14.6108C140.579 14.6108 141.917 14.2736 143.145 13.4869V16.2967C142.14 17.1958 140.579 17.6454 138.57 17.6454ZM135.223 9.89031H140.579C140.579 9.21599 140.244 8.54162 139.798 8.09208C139.351 7.64248 138.682 7.41771 138.012 7.41771C137.232 7.41771 136.562 7.64248 136.116 8.09208C135.558 8.54162 135.335 9.1036 135.223 9.89031Z" fill="#363636"/>
<path d="M154.079 4.60791C155.752 4.60791 157.091 5.28227 158.207 6.51857C159.323 7.75487 159.88 9.32838 159.88 11.1267C159.88 12.9249 159.323 14.4984 158.207 15.7347C157.091 16.971 155.752 17.6454 154.079 17.6454C152.405 17.6454 151.066 17.0834 150.062 15.8471V22.2535H146.603V4.94511H150.062V6.40618C151.066 5.28227 152.405 4.60791 154.079 4.60791ZM153.186 7.64248C152.517 7.64248 151.959 7.86725 151.401 8.20446C150.843 8.54162 150.397 8.99121 150.174 9.55315V12.8125C150.508 13.3745 150.843 13.824 151.401 14.1612C151.959 14.4984 152.517 14.6108 153.186 14.6108C154.19 14.6108 154.971 14.2736 155.529 13.5993C156.199 12.9249 156.422 12.1382 156.422 11.1267C156.422 10.1151 156.087 9.32837 155.529 8.65401C154.971 7.97969 154.079 7.64248 153.186 7.64248Z" fill="#363636"/>
<path d="M168.471 17.6454C166.575 17.6454 164.901 17.0834 163.674 15.8471C162.335 14.6108 161.665 13.0373 161.665 11.1267C161.665 9.32838 162.223 7.75487 163.451 6.51857C164.678 5.28227 166.128 4.60791 168.025 4.60791C169.81 4.60791 171.261 5.28227 172.265 6.51857C173.38 7.75487 173.827 9.32838 173.827 11.1267V12.0258H165.012C165.236 12.8125 165.682 13.4869 166.351 13.9365C167.132 14.386 168.025 14.6108 169.141 14.6108C170.48 14.6108 171.818 14.2736 173.046 13.4869V16.2967C172.041 17.1958 170.48 17.6454 168.471 17.6454ZM165.012 9.89031H170.368C170.368 9.21599 170.033 8.54162 169.587 8.09208C169.141 7.64248 168.471 7.41771 167.802 7.41771C167.021 7.41771 166.351 7.64248 165.905 8.09208C165.459 8.54162 165.124 9.1036 165.012 9.89031Z" fill="#363636"/>
<path d="M178.624 20.4553H175.277V14.3862H176.839C177.732 12.9251 178.29 10.5648 178.29 7.41788V5.05762H188.554V14.4986H190.562V20.5677H187.438V17.4208H178.624V20.4553ZM180.409 14.3862H185.318V7.86742H181.525C181.525 10.4525 181.079 12.5879 180.409 14.3862Z" fill="#363636"/>
<path d="M195.694 11.1267C195.694 12.1382 196.029 12.9249 196.699 13.5993C197.368 14.2736 198.149 14.6108 199.153 14.6108C200.157 14.6108 200.938 14.2736 201.607 13.5993C202.277 12.9249 202.612 12.1382 202.612 11.1267C202.612 10.1151 202.277 9.32837 201.607 8.65401C200.938 7.97969 200.157 7.64248 199.153 7.64248C198.149 7.64248 197.368 7.97969 196.699 8.65401C196.029 9.32837 195.694 10.1151 195.694 11.1267ZM192.235 11.1267C192.235 9.32838 192.905 7.75487 194.132 6.51857C195.36 5.28227 197.033 4.60791 199.041 4.60791C201.05 4.60791 202.612 5.28227 203.951 6.51857C205.178 7.75487 205.847 9.32838 205.847 11.1267C205.847 12.9249 205.178 14.4984 203.951 15.7347C202.723 16.971 201.05 17.6454 199.041 17.6454C197.033 17.6454 195.471 16.971 194.132 15.7347C192.905 14.4984 192.235 12.9249 192.235 11.1267Z" fill="#363636"/>
<path d="M215.665 17.3084H208.413V4.94531H215.331C216.558 4.94531 217.562 5.28247 218.232 5.84445C218.901 6.40643 219.235 7.19314 219.235 8.09228C219.235 9.32858 218.789 10.2277 217.785 10.6773C219.347 11.2392 220.128 12.2508 220.128 13.8243C220.128 14.8358 219.682 15.7349 218.901 16.2969C218.12 16.9712 217.115 17.3084 215.665 17.3084ZM211.872 12.1384V14.9482H214.773C216 14.9482 216.558 14.4986 216.558 13.5995C216.558 12.7004 216 12.2508 214.773 12.2508H211.872V12.1384ZM211.872 7.41796V9.89056H214.327C215.442 9.89056 216 9.44101 216 8.65426C216 7.86751 215.331 7.41796 214.215 7.41796H211.872Z" fill="#363636"/>
<path d="M238.648 17.3084H235.19V4.94531H238.648V17.3084ZM228.942 17.3084H222.806V4.94531H226.264V8.54187H228.719C230.281 8.54187 231.508 8.99142 232.401 9.77817C233.293 10.5649 233.74 11.5765 233.74 12.9251C233.74 14.1614 233.293 15.173 232.512 16.0721C231.62 16.8589 230.504 17.3084 228.942 17.3084ZM226.264 11.1269V14.611H228.272C228.942 14.611 229.5 14.4986 229.835 14.1614C230.169 13.8243 230.392 13.4871 230.392 12.9251C230.392 12.3632 230.169 11.9136 229.835 11.6888C229.5 11.3516 228.942 11.2392 228.272 11.2392H226.264V11.1269Z" fill="#363636"/>
<path d="M248.133 17.6454C246.236 17.6454 244.562 17.0834 243.335 15.8471C241.996 14.6108 241.327 13.0373 241.327 11.1267C241.327 9.32838 241.884 7.75487 243.112 6.51857C244.339 5.28227 245.79 4.60791 247.686 4.60791C249.471 4.60791 250.922 5.28227 251.926 6.51857C253.041 7.75487 253.488 9.32838 253.488 11.1267V12.0258H244.674C244.897 12.8125 245.343 13.4869 246.013 13.9365C246.794 14.386 247.686 14.6108 248.802 14.6108C250.141 14.6108 251.48 14.2736 252.707 13.4869V16.2967C251.703 17.1958 250.141 17.6454 248.133 17.6454ZM244.674 9.89031H250.029C250.029 9.21599 249.695 8.54162 249.248 8.09208C248.802 7.64248 248.133 7.41771 247.463 7.41771C246.682 7.41771 246.013 7.64248 245.566 8.09208C245.12 8.54162 244.785 9.1036 244.674 9.89031Z" fill="#363636"/>
<path d="M117.595 46.5304H114.359V34.1672H117.818V41.4727L123.397 34.1672H126.632V46.5304H123.174V39.2249L117.595 46.5304Z" fill="#363636"/>
<path d="M133.438 46.5304H129.98V34.1672H133.438V38.7753H138.459V34.1672H141.917V46.5304H138.459V41.6975H133.438V46.5304Z" fill="#363636"/>
<path d="M148.054 46.5304H143.925L149.169 39.8992L144.483 34.1672H148.388L152.07 38.7753V34.1672H155.529V38.7753L159.211 34.1672H163.116L158.43 39.8992L163.785 46.5304H159.545L155.529 41.2479V46.5304H152.07V41.2479L148.054 46.5304Z" fill="#363636"/>
<path d="M170.703 46.8673C168.806 46.8673 167.132 46.3054 165.905 45.0691C164.566 43.8327 163.897 42.2593 163.897 40.3486C163.897 38.5503 164.455 36.9768 165.682 35.7405C166.909 34.5042 168.36 33.8298 170.256 33.8298C172.041 33.8298 173.492 34.5042 174.496 35.7405C175.612 36.9768 176.058 38.5503 176.058 40.3486V41.2477H167.356C167.578 42.0345 168.025 42.7088 168.694 43.1584C169.475 43.6079 170.368 43.8327 171.483 43.8327C172.822 43.8327 174.161 43.4956 175.388 42.7088V45.5186C174.273 46.4177 172.711 46.8673 170.703 46.8673ZM167.356 39.1123H172.711C172.711 38.4379 172.376 37.7636 171.93 37.314C171.483 36.8644 170.814 36.6396 170.145 36.6396C169.364 36.6396 168.695 36.8644 168.248 37.314C167.69 37.7636 167.467 38.3255 167.356 39.1123Z" fill="#363636"/>
<path d="M182.194 46.5304H178.736V34.1672H182.194V38.7753H187.215V34.1672H190.674V46.5304H187.215V41.6975H182.194V46.5304Z" fill="#363636"/>
<path d="M200.157 46.8673C198.26 46.8673 196.587 46.3054 195.36 45.0691C194.021 43.8327 193.351 42.2593 193.351 40.3486C193.351 38.5503 193.909 36.9768 195.136 35.7405C196.364 34.5042 197.814 33.8298 199.711 33.8298C201.496 33.8298 202.946 34.5042 203.95 35.7405C205.066 36.9768 205.512 38.5503 205.512 40.3486V41.2477H196.698C196.921 42.0345 197.368 42.7088 198.037 43.1584C198.818 43.6079 199.711 43.8327 200.826 43.8327C202.165 43.8327 203.504 43.4956 204.731 42.7088V45.5186C203.727 46.4177 202.165 46.8673 200.157 46.8673ZM196.81 39.1123H202.165C202.165 38.4379 201.831 37.7636 201.384 37.314C200.938 36.8644 200.269 36.6396 199.599 36.6396C198.818 36.6396 198.149 36.8644 197.702 37.314C197.145 37.7636 196.81 38.3255 196.81 39.1123Z" fill="#363636"/>
<path d="M215.665 33.8298C217.339 33.8298 218.678 34.5042 219.793 35.7405C220.909 36.9768 221.467 38.5503 221.467 40.3486C221.467 42.1469 220.909 43.7203 219.793 44.9566C218.678 46.193 217.339 46.7549 215.665 46.7549C213.992 46.7549 212.653 46.193 211.649 44.9566V51.3629H208.19V34.167H211.649V35.6281C212.541 34.5042 213.88 33.8298 215.665 33.8298ZM214.661 36.8644C213.992 36.8644 213.434 37.0892 212.876 37.4264C212.318 37.7636 211.872 38.2131 211.649 38.7751V42.0345C211.983 42.5964 212.318 43.046 212.876 43.3832C213.434 43.7203 213.992 43.8327 214.661 43.8327C215.665 43.8327 216.446 43.4956 217.004 42.8212C217.673 42.1469 217.897 41.3601 217.897 40.3486C217.897 39.3371 217.562 38.5503 217.004 37.8759C216.446 37.2016 215.665 36.8644 214.661 36.8644Z" fill="#363636"/>
<path d="M227.492 46.5304H224.033V34.1672H227.492V38.7753H232.512V34.1672H235.971V46.5304H232.512V41.6975H227.492V46.5304Z" fill="#363636"/>
<path d="M255.273 46.5304H251.814V34.1672H255.273V46.5304ZM245.455 46.5304H239.318V34.1672H242.777V37.7638H245.231C246.794 37.7638 248.021 38.2133 248.913 39.0001C249.806 39.7869 250.252 40.7984 250.252 42.1471C250.252 43.3834 249.806 44.3949 249.025 45.294C248.244 46.0808 247.017 46.5304 245.455 46.5304ZM242.777 40.3488V43.833H244.785C245.455 43.833 246.012 43.7206 246.347 43.3834C246.682 43.0462 246.905 42.709 246.905 42.1471C246.905 41.5851 246.682 41.1355 246.347 40.9108C246.012 40.5736 245.455 40.4612 244.785 40.4612H242.777V40.3488Z" fill="#363636"/>
<path d="M264.645 46.8673C262.748 46.8673 261.074 46.3054 259.847 45.0691C258.62 43.8327 257.839 42.2593 257.839 40.3486C257.839 38.5503 258.397 36.9768 259.624 35.7405C260.852 34.5042 262.302 33.8298 264.199 33.8298C265.984 33.8298 267.434 34.5042 268.438 35.7405C269.554 36.9768 270 38.5503 270 40.3486V41.2477H261.186C261.409 42.0345 261.855 42.7088 262.525 43.1584C263.306 43.6079 264.198 43.8327 265.314 43.8327C266.653 43.8327 267.992 43.4956 269.219 42.7088V45.5186C268.215 46.4177 266.653 46.8673 264.645 46.8673ZM261.298 39.1123H266.653C266.653 38.4379 266.318 37.7636 265.872 37.314C265.426 36.8644 264.757 36.6396 264.087 36.6396C263.306 36.6396 262.637 36.8644 262.19 37.314C261.632 37.7636 261.298 38.3255 261.298 39.1123Z" fill="#363636"/>
<path d="M132.099 75.7522H114.359V63.3892H117.818V72.83H121.5V63.3892H124.847V72.83H128.641V63.3892H131.988V75.7522H132.099Z" fill="#363636"/>
<path d="M138.905 75.7522H135.446V63.3892H138.905V67.8846L143.145 63.3892H147.384L142.029 69.0085L148.165 75.7522H143.703L138.905 70.4696V75.7522Z" fill="#363636"/>
<path d="M151.847 69.571C151.847 70.5821 152.182 71.3692 152.851 72.0432C153.521 72.7176 154.301 73.0548 155.306 73.0548C156.31 73.0548 157.091 72.7176 157.76 72.0432C158.43 71.3692 158.765 70.5821 158.765 69.571C158.765 68.5593 158.43 67.7727 157.76 67.0983C157.091 66.4238 156.31 66.0866 155.306 66.0866C154.301 66.0866 153.521 66.4238 152.851 67.0983C152.182 67.7727 151.847 68.5593 151.847 69.571ZM148.5 69.571C148.5 67.7727 149.169 66.1989 150.397 64.9628C151.624 63.7262 153.298 63.0522 155.306 63.0522C157.314 63.0522 158.876 63.7262 160.215 64.9628C161.442 66.1989 162.111 67.7727 162.111 69.571C162.111 71.3692 161.442 72.9425 160.215 74.1787C158.988 75.4152 157.314 76.0897 155.306 76.0897C153.298 76.0897 151.735 75.4152 150.397 74.1787C149.058 72.9425 148.5 71.3692 148.5 69.571Z" fill="#363636"/>
<path d="M172.934 66.3114H169.141V67.9969C169.029 69.7952 168.917 71.2563 168.583 72.3801C168.248 73.5045 167.802 74.2911 167.132 74.9656C166.463 75.5273 165.57 75.8645 164.455 75.8645C163.897 75.8645 163.45 75.7522 163.116 75.6395V72.8301C163.339 72.9423 163.562 72.9423 163.785 72.9423C164.566 72.9423 165.124 72.3801 165.347 71.369C165.57 70.4696 165.682 69.0085 165.793 67.098L165.905 63.5015H176.504V75.8645H172.934V66.3114Z" fill="#363636"/>
<path d="M195.694 75.7522H192.235V63.3892H195.694V75.7522ZM185.876 75.7522H179.74V63.3892H183.198V66.9852H185.653C187.215 66.9852 188.442 67.4352 189.335 68.2218C190.227 69.0085 190.674 70.0201 190.674 71.3689C190.674 72.6051 190.227 73.6167 189.446 74.5156C188.665 75.3027 187.438 75.7522 185.876 75.7522ZM183.198 69.5707V73.0545H185.206C185.876 73.0545 186.434 72.9423 186.769 72.605C187.103 72.2678 187.326 71.9306 187.326 71.3689C187.326 70.8068 187.103 70.3573 186.769 70.1324C186.434 69.7951 185.876 69.6829 185.206 69.6829H183.198V69.5707Z" fill="#363636"/>
<path d="M21.7563 78C24.5291 78 26.7769 75.7357 26.7769 72.9424C26.7769 70.1491 24.5291 67.8848 21.7563 67.8848C18.9834 67.8848 16.7356 70.1491 16.7356 72.9424C16.7356 75.7357 18.9834 78 21.7563 78Z" fill="#4547BB" fill-opacity="0.4"/>
<path d="M38.4919 10.565C41.2647 10.565 43.5125 8.3006 43.5125 5.50735C43.5125 2.71409 41.2647 0.449707 38.4919 0.449707C35.719 0.449707 33.4712 2.71409 33.4712 5.50735C33.4712 8.3006 35.719 10.565 38.4919 10.565Z" fill="#4547BB" fill-opacity="0.4"/>
<path d="M38.4919 27.4234C41.2647 27.4234 43.5125 25.159 43.5125 22.3658C43.5125 19.5725 41.2647 17.3081 38.4919 17.3081C35.719 17.3081 33.4712 19.5725 33.4712 22.3658C33.4712 25.159 35.719 27.4234 38.4919 27.4234Z" fill="#4547BB" fill-opacity="0.4"/>
<path d="M38.4919 61.1409C41.2647 61.1409 43.5125 58.8765 43.5125 56.0833C43.5125 53.29 41.2647 51.0256 38.4919 51.0256C35.719 51.0256 33.4712 53.29 33.4712 56.0833C33.4712 58.8765 35.719 61.1409 38.4919 61.1409Z" fill="#4547BB" fill-opacity="0.4"/>
<path d="M38.4919 78C41.2647 78 43.5125 75.7357 43.5125 72.9424C43.5125 70.1491 41.2647 67.8848 38.4919 67.8848C35.719 67.8848 33.4712 70.1491 33.4712 72.9424C33.4712 75.7357 35.719 78 38.4919 78Z" fill="#4547BB" fill-opacity="0.4"/>
<path d="M55.2273 10.565C58.0002 10.565 60.248 8.3006 60.248 5.50735C60.248 2.71409 58.0002 0.449707 55.2273 0.449707C52.4545 0.449707 50.2067 2.71409 50.2067 5.50735C50.2067 8.3006 52.4545 10.565 55.2273 10.565Z" fill="#4547BB" fill-opacity="0.4"/>
<path d="M5.02066 10.565C7.7935 10.565 10.0413 8.3006 10.0413 5.50735C10.0413 2.71409 7.7935 0.449707 5.02066 0.449707C2.24783 0.449707 0 2.71409 0 5.50735C0 8.3006 2.24783 10.565 5.02066 10.565Z" fill="#4547BB"/>
<path d="M5.02066 27.4237C7.7935 27.4237 10.0413 25.1593 10.0413 22.366C10.0413 19.5728 7.7935 17.3083 5.02066 17.3083C2.24783 17.3083 0 19.5728 0 22.366C0 25.1593 2.24783 27.4237 5.02066 27.4237Z" fill="#4547BB"/>
<path d="M5.02066 44.2823C7.7935 44.2823 10.0413 42.0179 10.0413 39.2246C10.0413 36.4314 7.7935 34.167 5.02066 34.167C2.24783 34.167 0 36.4314 0 39.2246C0 42.0179 2.24783 44.2823 5.02066 44.2823Z" fill="#4547BB"/>
<path d="M5.02066 61.1409C7.7935 61.1409 10.0413 58.8765 10.0413 56.0833C10.0413 53.29 7.7935 51.0256 5.02066 51.0256C2.24783 51.0256 0 53.29 0 56.0833C0 58.8765 2.24783 61.1409 5.02066 61.1409Z" fill="#4547BB"/>
<path d="M5.02066 78C7.7935 78 10.0413 75.7357 10.0413 72.9424C10.0413 70.1491 7.7935 67.8848 5.02066 67.8848C2.24783 67.8848 0 70.1491 0 72.9424C0 75.7357 2.24783 78 5.02066 78Z" fill="#4547BB"/>
<path d="M21.7563 10.565C24.5291 10.565 26.7769 8.3006 26.7769 5.50735C26.7769 2.71409 24.5291 0.449707 21.7563 0.449707C18.9834 0.449707 16.7356 2.71409 16.7356 5.50735C16.7356 8.3006 18.9834 10.565 21.7563 10.565Z" fill="#4547BB"/>
<path d="M21.7563 27.4234C24.5291 27.4234 26.7769 25.159 26.7769 22.3658C26.7769 19.5725 24.5291 17.3081 21.7563 17.3081C18.9834 17.3081 16.7356 19.5725 16.7356 22.3658C16.7356 25.159 18.9834 27.4234 21.7563 27.4234Z" fill="#4547BB"/>
<path d="M21.7563 44.2823C24.5291 44.2823 26.7769 42.0179 26.7769 39.2246C26.7769 36.4314 24.5291 34.167 21.7563 34.167C18.9834 34.167 16.7356 36.4314 16.7356 39.2246C16.7356 42.0179 18.9834 44.2823 21.7563 44.2823Z" fill="#4547BB"/>
<path d="M21.7563 61.1409C24.5291 61.1409 26.7769 58.8765 26.7769 56.0833C26.7769 53.29 24.5291 51.0256 21.7563 51.0256C18.9834 51.0256 16.7356 53.29 16.7356 56.0833C16.7356 58.8765 18.9834 61.1409 21.7563 61.1409Z" fill="#4547BB"/>
<path d="M38.4919 44.2823C41.2647 44.2823 43.5125 42.0179 43.5125 39.2246C43.5125 36.4314 41.2647 34.167 38.4919 34.167C35.719 34.167 33.4712 36.4314 33.4712 39.2246C33.4712 42.0179 35.719 44.2823 38.4919 44.2823Z" fill="#4547BB"/>
<path d="M55.2273 27.4234C58.0002 27.4234 60.248 25.159 60.248 22.3658C60.248 19.5725 58.0002 17.3081 55.2273 17.3081C52.4545 17.3081 50.2067 19.5725 50.2067 22.3658C50.2067 25.159 52.4545 27.4234 55.2273 27.4234Z" fill="#4547BB"/>
<path d="M55.2273 44.2823C58.0002 44.2823 60.248 42.0179 60.248 39.2246C60.248 36.4314 58.0002 34.167 55.2273 34.167C52.4545 34.167 50.2067 36.4314 50.2067 39.2246C50.2067 42.0179 52.4545 44.2823 55.2273 44.2823Z" fill="#4547BB"/>
<path d="M55.2273 61.1409C58.0002 61.1409 60.248 58.8765 60.248 56.0833C60.248 53.29 58.0002 51.0256 55.2273 51.0256C52.4545 51.0256 50.2067 53.29 50.2067 56.0833C50.2067 58.8765 52.4545 61.1409 55.2273 61.1409Z" fill="#4547BB"/>
<path d="M55.2273 78C58.0002 78 60.248 75.7357 60.248 72.9424C60.248 70.1491 58.0002 67.8848 55.2273 67.8848C52.4545 67.8848 50.2067 70.1491 50.2067 72.9424C50.2067 75.7357 52.4545 78 55.2273 78Z" fill="#4547BB"/>
<path d="M71.9629 10.565C74.7358 10.565 76.9836 8.3006 76.9836 5.50735C76.9836 2.71409 74.7358 0.449707 71.9629 0.449707C69.1901 0.449707 66.9423 2.71409 66.9423 5.50735C66.9423 8.3006 69.1901 10.565 71.9629 10.565Z" fill="#4547BB"/>
<path d="M71.9629 27.4234C74.7358 27.4234 76.9836 25.159 76.9836 22.3658C76.9836 19.5725 74.7358 17.3081 71.9629 17.3081C69.1901 17.3081 66.9423 19.5725 66.9423 22.3658C66.9423 25.159 69.1901 27.4234 71.9629 27.4234Z" fill="#4547BB"/>
<path d="M71.9629 44.2823C74.7358 44.2823 76.9836 42.0179 76.9836 39.2246C76.9836 36.4314 74.7358 34.167 71.9629 34.167C69.1901 34.167 66.9423 36.4314 66.9423 39.2246C66.9423 42.0179 69.1901 44.2823 71.9629 44.2823Z" fill="#4547BB"/>
<path d="M71.9629 61.1409C74.7358 61.1409 76.9836 58.8765 76.9836 56.0833C76.9836 53.29 74.7358 51.0256 71.9629 51.0256C69.1901 51.0256 66.9423 53.29 66.9423 56.0833C66.9423 58.8765 69.1901 61.1409 71.9629 61.1409Z" fill="#4547BB"/>
<path d="M71.9629 78C74.7358 78 76.9836 75.7357 76.9836 72.9424C76.9836 70.1491 74.7358 67.8848 71.9629 67.8848C69.1901 67.8848 66.9423 70.1491 66.9423 72.9424C66.9423 75.7357 69.1901 78 71.9629 78Z" fill="#4547BB"/>
</g>
</g>
<defs>
<clipPath id="clip0_0_1">
<rect width="320" height="4065" fill="white" transform="translate(-25 -2968)"/>
</clipPath>
</defs>
</svg>
