<svg width="270" height="83" viewBox="0 0 270 83" fill="none" xmlns="http://www.w3.org/2000/svg">
<g clip-path="url(#clip0_0_1)">
<path fill-rule="evenodd" clip-rule="evenodd" d="M16.5906 41.4945L23.0753 16.4483L29.5607 41.4945L23.0753 66.5527L16.5906 41.4945ZM31.7276 41.494L38.2126 0L44.7086 41.494L38.2126 83L31.7276 41.494ZM46.8739 41.4945L53.3588 16.4483L59.8551 41.4945L53.3588 66.5527L46.8739 41.4945Z" fill="#1A3678"/>
<path fill-rule="evenodd" clip-rule="evenodd" d="M0 41.4939L5.04179 39.1543L7.20698 33.6678L9.37217 39.1543L14.4247 41.4939L9.37217 43.845L7.20698 49.3319L5.04179 43.845L0 41.4939Z" fill="#DA0033"/>
<path fill-rule="evenodd" clip-rule="evenodd" d="M62.0083 41.4939L67.0608 39.1543L69.2266 33.6678L71.3805 39.1543L76.433 41.4939L71.3805 43.845L69.2266 49.3319L67.0608 43.845L62.0083 41.4939Z" fill="#DA0033"/>
<path fill-rule="evenodd" clip-rule="evenodd" d="M119.61 34.4036C118.048 33.52 116.741 32.1851 115.834 30.5451C114.925 28.8646 114.456 26.9465 114.479 24.9982C114.455 23.0532 114.924 21.1385 115.834 19.4632C116.741 17.8233 118.048 16.4878 119.61 15.6041C121.278 14.6771 123.126 14.1938 125.001 14.1938C126.875 14.1938 128.723 14.6771 130.392 15.6041C131.965 16.5015 133.277 17.8547 134.185 19.5123C135.092 21.1705 135.559 23.0692 135.534 24.9982C135.561 26.9288 135.096 28.8298 134.188 30.4903C133.28 32.1508 131.966 33.5057 130.392 34.4036C128.721 35.3232 126.874 35.8025 125.001 35.8025C123.127 35.8025 121.281 35.3232 119.61 34.4036ZM128.082 30.7862C129.017 30.2258 129.787 29.3896 130.303 28.3745C130.834 27.3092 131.102 26.1126 131.081 24.9016C131.102 23.6941 130.834 22.5014 130.303 21.4407C129.787 20.4256 129.017 19.5894 128.082 19.0291C127.14 18.4676 126.082 18.1729 125.006 18.1729C123.931 18.1729 122.873 18.4676 121.93 19.0291C120.992 19.5837 120.221 20.4216 119.71 21.4407C119.179 22.5014 118.911 23.6941 118.932 24.9016C118.911 26.1126 119.179 27.3092 119.71 28.3745C120.221 29.3936 120.992 30.2309 121.93 30.7862C122.873 31.3476 123.931 31.6418 125.006 31.6418C126.082 31.6418 127.14 31.3476 128.082 30.7862ZM148.804 24.347C150.817 23.2617 151.825 21.7343 151.825 19.7648C151.828 18.9748 151.665 18.1945 151.345 17.4857C151.024 16.7762 150.558 16.1571 149.981 15.6767C148.495 14.4965 146.677 13.9168 144.84 14.0368C142.607 14.0099 140.414 14.6657 138.509 15.9297H138.432V20.7535L138.687 20.5364C140.232 19.0867 142.198 18.2756 144.24 18.2454C145.091 18.1917 145.938 18.4139 146.672 18.884C146.928 19.0479 147.141 19.2827 147.287 19.5643C147.433 19.8459 147.508 20.1646 147.504 20.4879C147.507 20.8175 147.43 21.1414 147.28 21.4275C147.13 21.7137 146.912 21.9514 146.649 22.1159C145.928 22.5774 145.098 22.7996 144.262 22.755H141.297V26.5295H144.262C145.271 26.4673 146.277 26.7181 147.16 27.2527C147.458 27.4241 147.708 27.6788 147.884 27.9907C148.06 28.3026 148.155 28.6601 148.159 29.0257C148.15 29.3958 148.049 29.7574 147.867 30.071C147.686 30.3852 147.43 30.64 147.127 30.8102C146.256 31.3482 145.263 31.6075 144.262 31.5578C142.041 31.5367 139.909 30.6017 138.299 28.9412L138.043 28.6882V33.9815L138.121 34.042C140.146 35.3015 142.452 35.9276 144.784 35.851C146.809 35.9573 148.814 35.3798 150.525 34.1985C151.213 33.7238 151.78 33.0664 152.168 32.2873C152.557 31.5087 152.756 30.6348 152.745 29.7489C152.68 27.2287 151.379 25.4197 148.804 24.347ZM203.728 24.347C205.726 23.2617 206.748 21.7303 206.748 19.7648C206.752 18.9737 206.587 18.1923 206.265 17.4828C205.944 16.7728 205.473 16.1548 204.892 15.6767C203.408 14.4949 201.589 13.9145 199.751 14.0368C197.52 14.011 195.326 14.6668 193.421 15.9297H193.356V20.7535L193.611 20.5364C195.154 19.0833 197.121 18.2711 199.164 18.2454C200.017 18.1934 200.867 18.4156 201.607 18.884C201.863 19.0508 202.078 19.2878 202.226 19.5711C202.373 19.8539 202.451 20.1744 202.451 20.4999C202.451 20.826 202.373 21.1459 202.226 21.4293C202.078 21.7126 201.863 21.9491 201.607 22.1159C200.888 22.5763 200.062 22.7985 199.23 22.755H196.265V26.5295H199.23C200.236 26.4667 201.238 26.7175 202.117 27.2527C202.415 27.4241 202.664 27.6788 202.841 27.9907C203.016 28.3026 203.111 28.6601 203.117 29.0257C203.109 29.3964 203.009 29.7585 202.828 30.0733C202.646 30.3874 202.388 30.6422 202.084 30.8102C201.217 31.3482 200.227 31.6075 199.23 31.5578C196.994 31.5493 194.845 30.6131 193.222 28.9412L192.955 28.6882V33.9815L193.033 34.042C195.059 35.2998 197.364 35.9253 199.697 35.851C201.724 35.951 203.729 35.3649 205.437 34.1746C206.125 33.6999 206.692 33.0419 207.081 32.2633C207.469 31.4842 207.669 30.6108 207.658 29.7249C207.592 27.2287 206.292 25.4197 203.738 24.347H203.728ZM171.369 26.409C172.006 27.3132 172.336 28.43 172.301 29.5684C172.334 30.4086 172.174 31.2443 171.835 32.0005C171.496 32.7563 170.988 33.4086 170.358 33.8975C168.708 35.0479 166.761 35.5929 164.806 35.4529H155.322V14.5554H164.35C166.18 14.4417 167.999 14.9295 169.569 15.9543C170.169 16.3924 170.657 16.9904 170.983 17.6919C171.309 18.3927 171.465 19.1725 171.435 19.9573C171.457 20.9266 171.21 21.8805 170.724 22.6951C170.223 23.501 169.527 24.143 168.714 24.5521C169.754 24.86 170.68 25.5083 171.369 26.409ZM159.764 23.2132H163.917C164.703 23.2754 165.484 23.0504 166.138 22.574C166.391 22.3449 166.589 22.0536 166.72 21.7246C166.849 21.3956 166.904 21.038 166.882 20.681C166.901 20.3251 166.843 19.9693 166.712 19.642C166.58 19.3152 166.381 19.0268 166.127 18.8C165.481 18.3048 164.695 18.07 163.906 18.1363H159.752L159.764 23.2132ZM167.792 29.1822C167.792 27.4458 166.748 26.5895 164.661 26.5895H159.764V31.8715H164.661C166.748 31.8715 167.792 30.9792 167.792 29.1822ZM190.279 31.5944V35.4529H175.378V14.5554H189.891V18.4379H179.774V22.9721H188.658V26.7346H179.774V31.5578L190.279 31.5944ZM230.834 31.5339V39.7941H226.703V35.4529H213.121V39.7941H209.002V31.5219H209.768C210.88 31.5219 211.734 30.5691 212.211 28.7721C212.781 26.2622 213.077 23.6884 213.088 21.1031L213.31 14.5674H228.102V31.5099L230.834 31.5339ZM216.542 27.7953C216.374 29.1348 215.909 30.4097 215.188 31.5099H223.793V18.4984H217.197L217.109 21.5372C217.057 23.6352 216.867 25.7264 216.542 27.7953ZM233.454 14.5308H237.896V28.1695L247.08 14.5554H251.255V35.4529H246.813V21.8748L237.641 35.4529H233.432L233.454 14.5308ZM270 31.5459V35.4529H255.053V14.5554H269.589V18.4379H259.472V22.9721H268.412V26.7346H259.472V31.5578L270 31.5459ZM111.97 30.0145C110.442 31.1614 108.618 31.7526 106.761 31.7024C105.65 31.7258 104.551 31.435 103.574 30.8587C102.636 30.3035 101.865 29.4661 101.353 28.4471C100.814 27.3887 100.542 26.1949 100.565 24.9862C100.542 23.7769 100.814 22.5831 101.353 21.5252C101.865 20.5056 102.636 19.6683 103.574 19.113C104.551 18.5333 105.649 18.238 106.761 18.2574C108.624 18.2362 110.447 18.8526 111.97 20.0178V15.6767C111.679 15.4928 111.379 15.3277 111.07 15.182C109.491 14.4869 107.794 14.1659 106.091 14.2407C104.388 14.3155 102.72 14.7845 101.198 15.6161C99.6513 16.5004 98.3601 17.8318 97.4668 19.4632C96.5452 21.1471 96.0725 23.0754 96.1008 25.0341C96.0742 26.9922 96.5469 28.9206 97.4668 30.6051C98.3601 32.2371 99.6513 33.5685 101.198 34.4522C102.837 35.3889 104.665 35.8653 106.517 35.839C108.075 35.8631 109.621 35.5392 111.059 34.8863C111.37 34.7292 111.681 34.5607 111.97 34.3796V30.0145Z" fill="#1A3678"/>
<path fill-rule="evenodd" clip-rule="evenodd" d="M119.609 67.3957C118.047 66.5121 116.74 65.1765 115.833 63.5366C114.945 61.8493 114.478 59.9392 114.478 57.996C114.478 56.0522 114.945 54.142 115.833 52.4547C116.74 50.8148 118.047 49.4793 119.609 48.5956C121.28 47.6766 123.127 47.1974 125 47.1974C126.873 47.1974 128.721 47.6766 130.392 48.5956C131.962 49.5033 133.275 50.8577 134.191 52.513C135.107 54.1689 135.59 56.0641 135.59 57.996C135.59 59.9272 135.107 61.8225 134.191 63.4784C133.275 65.1337 131.962 66.488 130.392 67.3957C128.722 68.3228 126.875 68.806 125 68.806C123.126 68.806 121.278 68.3228 119.609 67.3957ZM128.082 63.7777C129.013 63.2122 129.782 62.3771 130.303 61.3661C130.814 60.2945 131.08 59.1058 131.08 57.8995C131.08 56.6925 130.814 55.5038 130.303 54.4322C129.786 53.4172 129.017 52.581 128.082 52.0206C127.139 51.4591 126.081 51.1644 125.006 51.1644C123.931 51.1644 122.872 51.4591 121.93 52.0206C120.991 52.5758 120.22 53.4132 119.709 54.4322C119.198 55.5038 118.931 56.6925 118.931 57.8995C118.931 59.1058 119.198 60.2945 119.709 61.3661C120.226 62.38 120.996 63.2156 121.93 63.7777C122.875 64.3318 123.932 64.6219 125.006 64.6219C126.08 64.6219 127.136 64.3318 128.082 63.7777ZM156.455 47.4864V68.4445H152.013V59.8707H143.251V68.4445H138.809V47.5469H143.251V55.7831H151.99V47.5469L156.455 47.4864ZM180.884 64.4408V72.7136H176.787V68.4445H160.675V47.5469H165.115V64.5014H173.699V47.5469H178.141V64.5014L180.884 64.4408ZM198.341 64.4408V68.3239H183.405V47.5469H197.952V51.43H187.835V55.9636H196.72V59.7262H187.835V64.5494L198.341 64.4408ZM215.92 49.3919C215.323 48.735 214.608 48.2204 213.817 47.8822C213.028 47.5435 212.181 47.3882 211.334 47.4264H201.339V68.4445H205.781V61.4986H211.334C212.181 61.5369 213.028 61.3815 213.817 61.0428C214.608 60.7046 215.323 60.1899 215.92 59.5331C217.043 58.1588 217.663 56.3846 217.663 54.547C217.663 52.7094 217.043 50.9353 215.92 49.5604V49.3919ZM205.814 51.3089H210.701C211.061 51.2929 211.421 51.3597 211.755 51.5054C212.09 51.6505 212.392 51.8715 212.643 52.1531C213.147 52.7546 213.411 53.548 213.376 54.3602C213.414 55.1833 213.15 55.9888 212.643 56.6028C212.395 56.8878 212.093 57.1112 211.756 57.2568C211.422 57.4025 211.061 57.467 210.701 57.447H205.814V51.3089ZM238.34 47.4264V68.4445H233.898V59.8707H225.147V68.4445H220.705V47.5469H225.147V55.7831H233.898V47.5469L238.34 47.4264ZM97.0667 68.4445H101.508V47.5469H97.0667V68.4445ZM114.478 47.5469H109.548L102.541 58.1947L109.481 68.4445H114.467L107.494 58.1588L114.478 47.5469Z" fill="#DA0033"/>
</g>
<defs>
<clipPath id="clip0_0_1">
<rect width="1024" height="2831" fill="white" transform="translate(-625 -2464)"/>
</clipPath>
</defs>
</svg>
