<svg width="270" height="78" viewBox="0 0 270 78" fill="none" xmlns="http://www.w3.org/2000/svg">
<path d="M47.1007 48.216L44.7302 51.8303C44.1946 52.6452 43.0663 52.8916 42.2139 52.3814C41.8041 52.135 41.5181 51.7485 41.4087 51.2918C41.2993 50.835 41.3804 50.3681 41.6375 49.9762L44.0079 46.3613C44.3543 45.8337 44.9496 45.544 45.5575 45.544C45.8887 45.544 46.2231 45.6299 46.5242 45.8102C47.3766 46.3217 47.6356 47.401 47.1007 48.216ZM34.5764 61.6624C34.5764 63.0915 33.3607 64.2544 31.8659 64.2544C31.4409 64.2544 31.0317 64.1564 30.6571 63.9761V62.809H28.2803V63.9888C27.9145 64.16 27.5159 64.2544 27.103 64.2544C25.6081 64.2544 24.3924 63.0915 24.3924 61.6624C24.3924 60.2338 25.6081 59.0709 27.103 59.0709C27.6938 59.0709 28.2583 59.2536 28.7348 59.598L29.4847 60.1407L30.234 59.598C30.7105 59.2536 31.275 59.0709 31.8659 59.0709C33.3607 59.0709 34.5764 60.2338 34.5764 61.6624ZM17.5394 51.3819C17.43 51.8381 17.144 52.2251 16.7335 52.4709C16.3231 52.7161 15.834 52.7942 15.3569 52.6897C14.8798 52.5857 14.475 52.3117 14.2172 51.9198L11.8468 48.3055C11.5897 47.9137 11.5086 47.4467 11.618 46.9899C11.7273 46.5332 12.0134 46.1468 12.4232 45.9004C12.7149 45.7255 13.0455 45.6359 13.3843 45.6359C13.5226 45.6359 13.6622 45.651 13.8005 45.6816C14.2776 45.7862 14.6824 46.0596 14.9395 46.4515L17.31 50.0658C17.5677 50.4576 17.6488 50.9252 17.5394 51.3819ZM27.4078 19.9661H31.5296V21.5491H28.7486H27.4078V19.9661ZM47.8845 43.7362C45.8359 42.5078 43.1229 43.1016 41.8386 45.0608L41.2861 45.9028L31.7867 40.2097L41.2377 34.5448L43.2216 37.5647L45.5166 36.1867L43.5346 33.1685L44.9408 32.326L46.9699 35.4138L49.265 34.0357L47.2377 30.9497L48.6577 30.0987L47.3949 28.1726L30.6627 38.2012V28.4965H32.2135V26.1208H30.6627V23.9248H34.0138V17.5904H30.6571V16.3909H28.2803V17.5904H24.9236V23.9248H28.2854V26.1208H26.7553V28.4965H28.2854V38.1116L11.5532 28.083L10.2904 30.0086L11.7525 30.8848L9.68313 34.0357L11.9782 35.4138L14.0488 32.261L15.5166 33.1409L13.4309 36.3159L15.7265 37.6939L17.8135 34.5171L27.3116 40.2097L17.6613 45.9929L17.1094 45.1509C16.4884 44.2044 15.5166 43.5457 14.3725 43.2951C13.2284 43.0433 12.053 43.2326 11.0629 43.8264C9.01429 45.0548 8.39261 47.648 9.67747 49.606L12.0479 53.2203C12.669 54.1669 13.6408 54.8262 14.7849 55.0768C15.1155 55.1495 15.448 55.185 15.7781 55.185C16.5921 55.185 17.3904 54.9674 18.0938 54.5449C19.0839 53.9517 19.7735 53.0226 20.0356 51.9288C20.2977 50.8344 20.1003 49.7112 19.4799 48.7653L18.9248 47.9185L28.2854 42.3083V55.1603H26.7553V56.7133C24.0523 56.8851 21.9076 59.0361 21.9076 61.6624C21.9076 64.2893 24.0523 66.4402 26.7553 66.6127V67.5436H32.2135V66.6127C34.9158 66.4402 37.0613 64.2893 37.0613 61.6624C37.0613 59.0361 34.9158 56.8851 32.2135 56.7133V55.1603H30.6627V42.2187L40.0232 47.8283L39.4676 48.6757C38.8471 49.621 38.6497 50.7449 38.9119 51.8387C39.1746 52.9331 39.8636 53.8622 40.8536 54.4554C41.5759 54.8887 42.3805 55.0954 43.1763 55.0954C44.6378 55.0954 46.0679 54.3989 46.8995 53.1308L49.2706 49.5165C50.5555 47.5579 49.9338 44.9652 47.8845 43.7362Z" fill="#23356B"/>
<path d="M39.9684 -1.19209e-05C36.0912 -1.19209e-05 32.4151 1.11902 29.2771 3.2465C26.1392 1.11902 22.4631 -1.19209e-05 18.5859 -1.19209e-05H0V2.37507H18.5859C22.2211 2.37507 25.6526 3.51214 28.509 5.66185L29.2771 6.2406L30.0459 5.66185C32.9017 3.51214 36.3332 2.37507 39.9684 2.37507H58.499V-1.19209e-05H39.9684Z" fill="#23356B"/>
<path d="M45.723 65.5542C39.19 71.4889 31.1615 74.7421 29.2499 75.4651C27.3364 74.7403 19.2972 71.4781 12.7755 65.5542C3.24147 56.8935 2.50035 48.5716 2.50035 46.2278V7.87485H18.558C22.1932 7.87485 25.6241 9.01191 28.4811 11.1622L29.2493 11.741L30.018 11.1622C32.8744 9.01191 36.3059 7.87485 39.9405 7.87485H55.9894L55.9982 46.2278C55.9982 48.5716 55.257 56.8935 45.723 65.5542ZM39.9405 5.49976C36.0633 5.49976 32.3872 6.61939 29.2493 8.74687C26.1113 6.61939 22.4352 5.49976 18.558 5.49976H0.0161133V46.2278C0.0161133 53.1229 4.14603 60.9922 11.0644 67.2761C18.8566 74.355 28.4233 77.7139 28.8268 77.854L29.2486 78L29.6698 77.8546C30.0727 77.7157 39.6105 74.3827 47.4341 67.2761C54.3525 60.9916 58.4824 53.1229 58.4824 46.2272L58.473 5.49976H39.9405Z" fill="#23356B"/>
<path d="M92.6853 17.6897C93.4114 17.6897 93.9356 17.5394 94.2568 17.2389C94.5774 16.9385 94.7384 16.4414 94.7384 15.7473V15.2263C94.7384 14.4654 94.546 13.951 94.1626 13.6841C93.7785 13.4173 93.1599 13.2839 92.3082 13.2839H89.3959V17.6897H92.6853ZM91.9939 11.4202C92.7199 11.4202 93.2404 11.27 93.5547 10.9701C93.869 10.6696 94.0261 10.172 94.0261 9.47785V9.33782C94.0261 8.64308 93.869 8.14547 93.5547 7.84558C93.2404 7.54508 92.7199 7.39484 91.9939 7.39484H89.3959V11.4202H91.9939ZM85.8141 19.5527V18.0106L87.197 17.8099V7.27464L85.8141 7.07391V5.53239H92.3295C93.6 5.53239 94.5674 5.84971 95.2312 6.48375C95.8937 7.11778 96.2256 8.0421 96.2256 9.25729V9.41775C96.2256 9.99169 96.1389 10.4562 95.9635 10.8096C95.7887 11.1636 95.6046 11.4346 95.4091 11.6204C95.1708 11.8619 94.9062 12.0284 94.6126 12.1216V12.282C95.0319 12.3758 95.416 12.5423 95.7649 12.7827C96.0584 12.996 96.3268 13.3001 96.572 13.6943C96.8159 14.088 96.9378 14.6253 96.9378 15.3062V15.8272C96.9378 17.0424 96.6059 17.9673 95.9434 18.6014C95.2796 19.2354 94.3122 19.5527 93.0418 19.5527H85.8141Z" fill="#23356B"/>
<path d="M106.591 12.1212C106.591 11.5761 106.473 11.1957 106.236 10.9811C105.998 10.7666 105.6 10.659 105.042 10.659H103.533C102.974 10.659 102.576 10.7702 102.338 10.9908C102.101 11.2119 101.982 11.5761 101.982 12.0821V16.3491C101.982 16.8948 102.101 17.2782 102.338 17.4988C102.576 17.7194 102.974 17.8299 103.533 17.8299H105.042C105.586 17.8299 105.98 17.7194 106.225 17.4988C106.469 17.2782 106.591 16.908 106.591 16.3888V12.1212ZM108.645 16.5252C108.645 18.5439 107.576 19.5524 105.439 19.5524H103.135C100.984 19.5524 99.9093 18.5439 99.9093 16.5252V11.9644C99.9093 9.94685 100.984 8.9372 103.135 8.9372H105.439C107.576 8.9372 108.645 9.94685 108.645 11.9644V16.5252Z" fill="#23356B"/>
<path d="M114.748 10.6593V17.8302H117.408C117.953 17.8302 118.343 17.7166 118.581 17.4894C118.819 17.2623 118.937 16.8885 118.937 16.368V12.1221C118.937 11.6004 118.819 11.2272 118.581 11C118.343 10.7728 117.953 10.6593 117.408 10.6593H114.748ZM111.438 23.3586V21.9367L112.694 21.7564V10.5198L111.438 10.3395V8.93744H117.764C119.915 8.93744 120.99 9.96572 120.99 12.0217V16.4882C120.99 18.5315 119.915 19.5526 117.764 19.5526H114.748V21.7564L116.005 21.9367V23.3586H111.438Z" fill="#23356B"/>
<path d="M130.852 12.1212C130.852 11.5761 130.733 11.1957 130.495 10.9811C130.258 10.7666 129.86 10.659 129.301 10.659H127.793C127.234 10.659 126.836 10.7702 126.599 10.9908C126.361 11.2119 126.243 11.5761 126.243 12.0821V16.3491C126.243 16.8948 126.361 17.2782 126.599 17.4988C126.836 17.7194 127.234 17.8299 127.793 17.8299H129.301C129.846 17.8299 130.24 17.7194 130.485 17.4988C130.729 17.2782 130.852 16.908 130.852 16.3888V12.1212ZM132.905 16.5252C132.905 18.5439 131.836 19.5524 129.7 19.5524H127.394C125.244 19.5524 124.168 18.5439 124.168 16.5252V11.9644C124.168 9.94685 125.244 8.9372 127.394 8.9372H129.7C131.836 8.9372 132.905 9.94685 132.905 11.9644V16.5252Z" fill="#23356B"/>
<path d="M143.197 19.5526V15.0861H139.007V17.9504L140.264 18.1307V19.5526H135.697V18.1307L136.954 17.9504V10.5397L135.697 10.3594V8.93744H139.007V13.3637H143.197V10.5397L141.961 10.3594V8.93744H146.528V10.3594L145.271 10.5397V17.9504L146.528 18.1307V19.5526H143.197Z" fill="#23356B"/>
<path d="M151.394 13.3232H155.795V12.0876C155.795 11.5737 155.672 11.2071 155.427 10.9878C155.183 10.769 154.789 10.659 154.244 10.659H152.945C152.386 10.659 151.988 10.769 151.751 10.9878C151.513 11.2071 151.394 11.5737 151.394 12.0876V13.3232ZM152.547 19.5524C150.396 19.5524 149.321 18.5415 149.321 16.5168V11.9926C149.321 9.95526 150.396 8.9372 152.547 8.9372H154.642C156.778 8.9372 157.848 9.94865 157.848 11.9704V14.8659H151.394V16.3479C151.394 16.8822 151.513 17.2626 151.751 17.4898C151.988 17.717 152.386 17.8299 152.945 17.8299H157.365V19.5524H152.547Z" fill="#23356B"/>
<path d="M166.988 10.5395L165.731 10.3592V8.93732H169.041V13.3035H170.926L172.707 8.93732H175.389V10.3592L174.173 10.5395L172.686 14.1448L174.404 17.9503L175.619 18.1306V19.5525H172.98L170.926 15.0259H169.041V17.9503L170.297 18.1306V19.5525H165.731V18.1306L166.988 17.9503V15.0259H165.102L163.049 19.5525H160.41V18.1306L161.625 17.9503L163.343 14.1448L161.855 10.5395L160.64 10.3592V8.93732H163.321L165.102 13.3035H166.988V10.5395Z" fill="#23356B"/>
<path d="M178.313 12.0016C178.313 9.95887 179.388 8.9372 181.539 8.9372H185.939V12.2624H184.41L184.2 10.6596H181.917C181.358 10.6596 180.96 10.7732 180.723 11.0004C180.485 11.2275 180.366 11.6008 180.366 12.1218V16.3684C180.366 16.8888 180.485 17.2626 180.723 17.4898C180.96 17.717 181.358 17.8299 181.917 17.8299H185.939V19.5524H181.539C179.388 19.5524 178.313 18.5313 178.313 16.4886V12.0016Z" fill="#23356B"/>
<path d="M188.761 18.1306L190.018 17.9503V10.5395L188.761 10.3592V8.93732H192.071V13.3035H194.123L195.904 8.93732H198.587V10.3592L197.371 10.5395L195.884 14.1448L197.602 17.9503L198.817 18.1306V19.5525H196.177L194.123 15.0259H192.071V17.9503L193.328 18.1306V19.5525H188.761V18.1306Z" fill="#23356B"/>
<path d="M208.906 19.5526V12.4424H208.759L204.653 19.5526H201.301V18.1307L202.558 17.9504V10.5397L201.301 10.3594V8.93744H204.612V16.0477H204.779L208.864 8.93744H212.237V10.3594L210.98 10.5397V17.9504L212.237 18.1307V19.5526H208.906Z" fill="#23356B"/>
<path d="M221.463 4.49101H222.95V5.09139C222.95 5.81257 222.779 6.33663 222.437 6.66356C222.095 6.9911 221.547 7.15457 220.793 7.15457H219.766C219.012 7.15457 218.463 6.9911 218.121 6.66356C217.779 6.33663 217.608 5.81257 217.608 5.09139V4.49101H219.095V5.01086C219.095 5.53191 219.36 5.79274 219.892 5.79274H220.667C221.198 5.79274 221.463 5.53191 221.463 5.01086V4.49101ZM222.427 19.5529V12.442H222.28L218.174 19.5529H214.822V18.1303L216.079 17.9506V10.5393L214.822 10.3596V8.93708H218.132V16.0473H218.3L222.385 8.93708H225.758V10.3596L224.501 10.5393V17.9506L225.758 18.1303V19.5529H222.427Z" fill="#23356B"/>
<path d="M87.1968 31.223L85.8138 31.0223V29.4802H95.4717V33.1456H93.7958L93.5444 31.3426H89.3962V41.7576L90.7792 41.9584V43.5011H85.8138V41.9584L87.1968 41.7576V31.223Z" fill="#23356B"/>
<path d="M104.43 36.0696C104.43 35.5239 104.311 35.1441 104.074 34.9295C103.836 34.715 103.438 34.6074 102.88 34.6074H101.371C100.812 34.6074 100.414 34.718 100.177 34.9391C99.9393 35.1603 99.8211 35.5239 99.8211 36.0305V40.2969C99.8211 40.8432 99.9393 41.226 100.177 41.4472C100.414 41.6677 100.812 41.7783 101.371 41.7783H102.88C103.424 41.7783 103.819 41.6677 104.064 41.4472C104.307 41.226 104.43 40.8558 104.43 40.3366V36.0696ZM106.484 40.4736C106.484 42.4923 105.414 43.5007 103.278 43.5007H100.973C98.8222 43.5007 97.7473 42.4923 97.7473 40.4736V35.9127C97.7473 33.8946 98.8222 32.885 100.973 32.885H103.278C105.414 32.885 106.484 33.8946 106.484 35.9127V40.4736Z" fill="#23356B"/>
<path d="M109.661 35.9499C109.661 33.9065 110.736 32.8848 112.887 32.8848H117.287V36.2101H115.757L115.548 34.6079H113.264C112.705 34.6079 112.307 34.7208 112.07 34.948C111.832 35.1752 111.714 35.549 111.714 36.0695V40.3166C111.714 40.8371 111.832 41.2109 112.07 41.438C112.307 41.6652 112.705 41.7782 113.264 41.7782H117.287V43.5006H112.887C110.736 43.5006 109.661 42.4795 109.661 40.4362V35.9499Z" fill="#23356B"/>
<path d="M125.034 43.1H123.63L121.053 34.4873L119.859 34.307V32.8851H122.688L124.929 40.8776H125.642L127.422 34.4873L126.228 34.307V32.8851H130.648V34.307L129.455 34.4873L126.605 44.2016C126.437 44.7755 126.252 45.2599 126.05 45.6542C125.847 46.0472 125.61 46.3681 125.337 46.6151C125.065 46.8621 124.751 47.0394 124.394 47.1458C124.039 47.2528 123.623 47.3063 123.148 47.3063H122.519V45.5839H123.064C123.539 45.5839 123.892 45.4841 124.122 45.2834C124.353 45.0832 124.552 44.7022 124.719 44.1415L125.034 43.1Z" fill="#23356B"/>
<path d="M135.963 40.1644C135.935 40.4913 135.876 40.7605 135.785 40.9715C135.694 41.1824 135.6 41.3495 135.502 41.4721C135.39 41.6224 135.272 41.7239 135.147 41.7786H139.588V34.6281H136.487L135.963 40.1644ZM132.926 41.7786C133.093 41.6849 133.253 41.5574 133.408 41.3976C133.533 41.2648 133.652 41.0875 133.764 40.8669C133.875 40.647 133.945 40.3765 133.973 40.0556L134.539 34.4875L133.282 34.3072V32.8853H142.898V34.3072L141.641 34.4875V41.7786H143.065V45.9242H141.347L141.075 43.501H134.119L133.847 45.9242H132.129V41.7786H132.926Z" fill="#23356B"/>
<path d="M149.237 38.8538C148.692 38.8538 148.297 38.9674 148.054 39.194C147.809 39.4211 147.687 39.7889 147.687 40.2962V40.4963C147.687 40.9909 147.812 41.3473 148.064 41.5684C148.315 41.7884 148.706 41.8984 149.237 41.8984H151.709V38.8538H149.237ZM146.639 32.8848H150.536C152.686 32.8848 153.762 33.9131 153.762 35.9697V41.8984L155.019 42.0787V43.5006H148.776C147.742 43.5006 146.96 43.2476 146.43 42.7398C145.899 42.2325 145.634 41.4843 145.634 40.4963V40.2962C145.634 39.3081 145.899 38.5605 146.43 38.0527C146.96 37.5455 147.742 37.2912 148.776 37.2912H151.709V36.0893C151.709 35.5562 151.587 35.1752 151.343 34.948C151.098 34.7208 150.697 34.6079 150.138 34.6079H146.639V32.8848Z" fill="#23356B"/>
<path d="M160.202 34.6076V41.7786H162.863C163.408 41.7786 163.799 41.665 164.037 41.4378C164.274 41.2106 164.393 40.8368 164.393 40.3164V36.0698C164.393 35.5488 164.274 35.1749 164.037 34.9478C163.799 34.7206 163.408 34.6076 162.863 34.6076H160.202ZM156.892 47.3064V45.8851L158.149 45.7042V34.4676L156.892 34.2873V32.8852H163.219C165.37 32.8852 166.446 33.9135 166.446 35.97V40.436C166.446 42.4799 165.37 43.501 163.219 43.501H160.202V45.7042L161.46 45.8851V47.3064H156.892Z" fill="#23356B"/>
<path d="M169.624 35.9499C169.624 33.9065 170.699 32.8848 172.85 32.8848H177.249V36.2101H175.72L175.511 34.6079H173.227C172.668 34.6079 172.27 34.7208 172.033 34.948C171.795 35.1752 171.677 35.549 171.677 36.0695V40.3166C171.677 40.8371 171.795 41.2109 172.033 41.438C172.27 41.6652 172.668 41.7782 173.227 41.7782H177.249V43.5006H172.85C170.699 43.5006 169.624 42.4795 169.624 40.4362V35.9499Z" fill="#23356B"/>
<path d="M188.875 32.8851V36.11H187.492L187.324 34.6075H185.46V41.8986L186.717 42.0789V43.5009H182.15V42.0789L183.407 41.8986V34.6075H181.521L181.353 36.11H179.971V32.8851H188.875Z" fill="#23356B"/>
<path d="M194.659 38.9137V41.7575H197.172C197.76 41.7575 198.188 41.668 198.46 41.4877C198.733 41.3074 198.869 40.9372 198.869 40.3765C198.869 39.8692 198.754 39.4984 198.523 39.2646C198.293 39.0309 197.913 38.9137 197.382 38.9137H194.659ZM194.659 37.1919H196.984C197.892 37.1919 198.345 36.7507 198.345 35.8703C198.345 35.3757 198.206 35.0451 197.927 34.8781C197.647 34.7116 197.249 34.6281 196.732 34.6281H194.659V37.1919ZM191.348 32.8852H197.382C198.359 32.8852 199.11 33.1328 199.635 33.6262C200.158 34.1202 200.42 34.815 200.42 35.7092C200.42 36.1768 200.349 36.55 200.21 36.8307C200.07 37.1113 199.917 37.3253 199.75 37.4725C199.554 37.6456 199.337 37.7658 199.1 37.8325V37.993C199.449 38.0729 199.756 38.2063 200.021 38.3932C200.259 38.5675 200.472 38.8073 200.661 39.1144C200.849 39.4215 200.943 39.8356 200.943 40.356V40.5562C200.943 41.5177 200.681 42.2491 200.158 42.7497C199.635 43.2504 198.869 43.501 197.864 43.501H191.348V42.079L192.605 41.8988V34.4874L191.348 34.3071V32.8852Z" fill="#23356B"/>
<path d="M205.998 37.2715H210.398V36.0359C210.398 35.5215 210.276 35.1555 210.031 34.9355C209.787 34.7174 209.392 34.6074 208.848 34.6074H207.548C206.99 34.6074 206.592 34.7174 206.355 34.9355C206.117 35.1555 205.998 35.5215 205.998 36.0359V37.2715ZM207.15 43.5007C205 43.5007 203.924 42.4893 203.924 40.4646V35.941C203.924 33.9036 205 32.885 207.15 32.885H209.246C211.382 32.885 212.451 33.8964 212.451 35.9181V38.8137H205.998V40.2963C205.998 40.8306 206.117 41.211 206.355 41.4382C206.592 41.6653 206.99 41.7783 207.548 41.7783H211.969V43.5007H207.15Z" fill="#23356B"/>
<path d="M222.733 43.5009V39.0337H218.543V41.8986L219.8 42.0789V43.5009H215.233V42.0789L216.49 41.8986V34.4873L215.233 34.307V32.8851H218.543V37.3113H222.733V34.4873L221.497 34.307V32.8851H226.064V34.307L224.807 34.4873V41.8986L226.064 42.0789V43.5009H222.733Z" fill="#23356B"/>
<path d="M236.149 43.5009V39.0337H231.959V41.8986L233.216 42.0789V43.5009H228.649V42.0789L229.906 41.8986V34.4873L228.649 34.307V32.8851H231.959V37.3113H236.149V34.4873L234.913 34.307V32.8851H239.48V34.307L238.223 34.4873V41.8986L239.48 42.0789V43.5009H236.149Z" fill="#23356B"/>
<path d="M255.222 41.8986L256.479 42.0789V43.5009H251.912V42.0789L253.148 41.8986V34.4873L251.912 34.307V32.8851H256.479V34.307L255.222 34.4873V41.8986ZM247.365 41.758C247.91 41.758 248.301 41.645 248.539 41.4178C248.776 41.1907 248.895 40.8163 248.895 40.2964V39.675C248.895 39.1678 248.776 38.7976 248.539 38.5638C248.301 38.33 247.91 38.2128 247.365 38.2128H245.375V41.758H247.365ZM242.065 43.5009V42.0789L243.322 41.8986V34.4873L242.065 34.307V32.8851H246.632V34.307L245.375 34.4873V36.4904H247.763C249.886 36.4904 250.947 37.5054 250.947 39.535V40.4358C250.947 42.4798 249.886 43.5009 247.763 43.5009H242.065Z" fill="#23356B"/>
<path d="M265.705 28.4388H267.192V29.0397C267.192 29.7603 267.021 30.285 266.679 30.6119C266.337 30.9389 265.788 31.1029 265.035 31.1029H264.008C263.254 31.1029 262.706 30.9389 262.363 30.6119C262.021 30.285 261.85 29.7603 261.85 29.0397V28.4388H263.337V28.9592C263.337 29.4797 263.603 29.7405 264.133 29.7405H264.908C265.44 29.7405 265.705 29.4797 265.705 28.9592V28.4388ZM266.668 43.5006V36.3898H266.522L262.415 43.5006H259.064V42.0787L260.32 41.8984V34.4871L259.064 34.3074V32.8848H262.374V39.9957H262.541L266.627 32.8848H270V34.3074L268.743 34.4871V41.8984L270 42.0787V43.5006H266.668Z" fill="#23356B"/>
<path d="M91.6381 61.2604L93.5447 55.1676L92.1618 54.9705V53.429H97.1271V54.9705L95.7442 55.1694L92.874 63.8927C92.6646 64.5544 92.4371 65.1115 92.1932 65.5617C91.9487 66.0124 91.6658 66.3766 91.3446 66.6548C91.0234 66.9325 90.6537 67.1344 90.2345 67.2606C89.8158 67.3862 89.3123 67.4493 88.7258 67.4493H88.2236V65.5863H88.7679C89.0609 65.5863 89.3192 65.5598 89.543 65.5064C89.7662 65.4535 89.9585 65.3633 90.1188 65.2359C90.2797 65.1091 90.4155 64.9354 90.5274 64.7155C90.6393 64.4949 90.7443 64.2118 90.8417 63.8639L90.9882 63.3434H89.0822L86.3585 55.1682L84.9756 54.9705V53.429H88.035L90.4859 61.2604H91.6381Z" fill="#23356B"/>
<path d="M106.031 67.4492V62.9827H101.84V65.847L103.097 66.0273V67.4492H98.53V66.0273L99.7866 65.847V58.4363L98.53 58.2554V56.834H101.84V61.2603H106.031V58.4363L104.794 58.2554V56.834H109.361V58.2554L108.104 58.4363V65.847L109.361 66.0273V67.4492H106.031Z" fill="#23356B"/>
<path d="M119.551 67.4492V60.339H119.405L115.299 67.4492H111.947V66.0273L113.204 65.847V58.4363L111.947 58.2554V56.834H115.257V63.9443H115.425L119.509 56.834H122.882V58.2554L121.625 58.4363V65.847L122.882 66.0273V67.4492H119.551Z" fill="#23356B"/>
<path d="M128.778 62.8626V65.7065H131.292C131.878 65.7065 132.307 65.6163 132.58 65.436C132.853 65.2558 132.989 64.8855 132.989 64.3248C132.989 63.8176 132.873 63.4474 132.643 63.213C132.412 62.9792 132.032 62.8626 131.501 62.8626H128.778ZM128.778 61.1402H131.103C132.011 61.1402 132.464 60.6991 132.464 59.8187C132.464 59.324 132.325 58.9941 132.046 58.8264C131.766 58.66 131.369 58.5764 130.852 58.5764H128.778V61.1402ZM125.467 56.8342H131.501C132.478 56.8342 133.23 57.0812 133.754 57.5752C134.277 58.0686 134.539 58.7633 134.539 59.6582C134.539 60.1252 134.469 60.499 134.329 60.7796C134.19 61.0603 134.036 61.2736 133.869 61.4209C133.672 61.5946 133.456 61.7142 133.219 61.7809V61.9413C133.568 62.0219 133.875 62.1547 134.141 62.3416C134.378 62.5159 134.591 62.7557 134.779 63.0634C134.968 63.3705 135.062 63.7839 135.062 64.3044V64.5045C135.062 65.4661 134.801 66.1975 134.277 66.6987C133.754 67.1987 132.989 67.4493 131.983 67.4493H125.467V66.0274L126.724 65.8471V58.4364L125.467 58.2555V56.8342Z" fill="#23356B"/>
<path d="M140.117 61.2199H144.517V59.9843C144.517 59.4704 144.395 59.1038 144.15 58.8845C143.906 58.6657 143.512 58.5557 142.966 58.5557H141.668C141.109 58.5557 140.711 58.6657 140.474 58.8845C140.236 59.1038 140.117 59.4704 140.117 59.9843V61.2199ZM141.269 67.4491C139.119 67.4491 138.043 66.4376 138.043 64.4135V59.8893C138.043 57.852 139.119 56.8339 141.269 56.8339H143.365C145.501 56.8339 146.57 57.8448 146.57 59.8671V62.7626H140.117V64.2447C140.117 64.7789 140.236 65.1593 140.474 65.3865C140.711 65.6137 141.109 65.7267 141.668 65.7267H146.088V67.4491H141.269Z" fill="#23356B"/>
<path d="M152.662 58.556V65.7269H155.323C155.868 65.7269 156.259 65.6133 156.496 65.3862C156.733 65.159 156.853 64.7852 156.853 64.2647V60.0188C156.853 59.4971 156.733 59.1239 156.496 58.8967C156.259 58.6696 155.868 58.556 155.323 58.556H152.662ZM149.352 71.2554V69.8334L150.609 69.6531V58.4166L149.352 58.2363V56.8342H155.679C157.829 56.8342 158.906 57.8625 158.906 59.9184V64.3849C158.906 66.4283 157.829 67.4493 155.679 67.4493H152.662V69.6531L153.919 69.8334V71.2554H149.352Z" fill="#23356B"/>
<path d="M162.083 59.8983C162.083 57.8556 163.159 56.8339 165.309 56.8339H169.709V60.1586H168.18L167.97 58.5563H165.687C165.128 58.5563 164.73 58.6699 164.493 58.8971C164.255 59.1243 164.136 59.4975 164.136 60.0185V64.2651C164.136 64.7855 164.255 65.1593 164.493 65.3865C164.73 65.6137 165.128 65.7267 165.687 65.7267H169.709V67.4491H165.309C163.159 67.4491 162.083 66.428 162.083 64.3853V59.8983Z" fill="#23356B"/>
<path d="M180.136 67.4492V60.339H179.989L175.883 67.4492H172.531V66.0273L173.788 65.847V58.4363L172.531 58.2554V56.834H175.841V63.9443H176.009L180.093 56.834H183.466V58.2554L182.21 58.4363V65.847L183.466 66.0273V67.4492H180.136Z" fill="#23356B"/>
<path d="M194.855 56.834V60.0583H193.472L193.305 58.5559H191.44V65.847L192.697 66.0273V67.4492H188.13V66.0273L189.387 65.847V58.5559H187.501L187.334 60.0583H185.951V56.834H194.855Z" fill="#23356B"/>
<path d="M199.7 61.2199H204.1V59.9843C204.1 59.4704 203.978 59.1038 203.733 58.8845C203.489 58.6657 203.094 58.5557 202.55 58.5557H201.25C200.692 58.5557 200.294 58.6657 200.057 58.8845C199.819 59.1038 199.7 59.4704 199.7 59.9843V61.2199ZM200.852 67.4491C198.702 67.4491 197.626 66.4376 197.626 64.4135V59.8893C197.626 57.852 198.702 56.8339 200.852 56.8339H202.948C205.084 56.8339 206.153 57.8448 206.153 59.8671V62.7626H199.7V64.2447C199.7 64.7789 199.819 65.1593 200.057 65.3865C200.294 65.6137 200.692 65.7267 201.25 65.7267H205.671V67.4491H200.852Z" fill="#23356B"/>
<path d="M217.839 56.834V60.0583H216.456L216.289 58.5559H214.424V65.847L215.681 66.0273V67.4492H211.114V66.0273L212.371 65.847V58.5559H210.486L210.318 60.0583H208.935V56.834H217.839Z" fill="#23356B"/>
</svg>
