<svg width="272" height="308" viewBox="0 0 272 308" fill="none" xmlns="http://www.w3.org/2000/svg">
<mask id="mask0_208_20954" style="mask-type:alpha" maskUnits="userSpaceOnUse" x="0" y="0" width="272" height="308">
<path d="M250 308H22C9.84974 308 0 298.15 0 286V22C0 9.84974 9.84974 0 22 0H170L272 102V286C272 298.15 262.15 308 250 308Z" fill="#FF7979"/>
</mask>
<g mask="url(#mask0_208_20954)">
<path d="M250 307H22C10.402 307 1 297.598 1 286V22C1 10.402 10.402 1 22 1H169.586L271 102.414V286C271 297.598 261.598 307 250 307Z" stroke="#2EBC89" stroke-width="2"/>
<path d="M71.8372 221.944H100.922V228H63.7752L63.698 222.445L91.6643 177.931H64.1995V171.836H99.8035L99.8806 177.275L71.8372 221.944ZM118.989 171.836H152.934V178.046H139.472V221.828H152.934V228H118.989V221.828H132.143V178.046H118.989V171.836ZM179.757 205.473V228H172.621V171.836H190.828C193.348 171.887 195.727 172.286 197.964 173.032C200.227 173.778 202.207 174.858 203.905 176.272C205.602 177.686 206.939 179.435 207.916 181.518C208.919 183.601 209.421 185.993 209.421 188.693C209.421 191.393 208.919 193.785 207.916 195.868C206.939 197.925 205.602 199.661 203.905 201.075C202.207 202.49 200.227 203.57 197.964 204.315C195.727 205.061 193.348 205.447 190.828 205.473H179.757ZM179.757 199.609H190.828C192.474 199.584 193.991 199.326 195.38 198.838C196.768 198.324 197.977 197.604 199.006 196.678C200.034 195.752 200.831 194.633 201.397 193.322C201.989 191.985 202.284 190.467 202.284 188.77C202.284 187.073 201.989 185.543 201.397 184.18C200.831 182.817 200.047 181.66 199.044 180.708C198.016 179.757 196.794 179.024 195.38 178.509C193.991 177.995 192.474 177.725 190.828 177.699H179.757V199.609Z" fill="#100F0F"/>
<path d="M272 102H192C179.85 102 170 92.1503 170 80V0L272 102Z" fill="#23A476"/>
</g>
</svg>
